<svg xmlns="http://www.w3.org/2000/svg" version="1.1" xmlns:xlink="http://www.w3.org/1999/xlink" xmlns:svgjs="http://svgjs.dev/svgjs" width="128" height="128" viewBox="0 0 256 256"><g transform="matrix(0.44782608695652176,0,0,0.44782608695652176,35.33913043478261,12.5)"><svg viewBox="0 0 125 225" data-background-color="#000000" preserveAspectRatio="xMidYMid meet" height="230" width="128" xmlns="http://www.w3.org/2000/svg" xmlns:xlink="http://www.w3.org/1999/xlink"><g id="tight-bounds" transform="matrix(1,0,0,1,-1.4210854715202004e-14,0)"><svg viewBox="0 0 125 225" height="225" width="125"><rect width="125.00000000000003" height="225" fill="url(#74a5537d-8c9d-496b-9755-f35778b12780)" mask="url(#6a491c43-e313-4fe6-9741-e69a48ec0b81)" data-fill-palette-color="tertiary"></rect><g><svg></svg></g><g><svg viewBox="0 0 125 225" height="225" width="125"><g><path d="M33.402 55.033c0-0.436 0.218-0.872 0.654-0.872 0.436 0 0.872 0.218 0.872 0.872 0.218 0 0.654 0 0.873-0.218 0.872 0 1.745-0.218 2.399 0 0.654 0.218 1.09 0.218 1.744 0.436 0.654 0.218 1.09 0 1.527-0.218 0.872-0.218 1.527-0.654 2.399-0.872 0.436-0.218 0.654-0.218 1.091-0.218 0.436-0.218 0.872-0.218 1.526-0.437 1.09-0.218 2.181-0.436 3.053-0.872 0.872-0.436 1.745-0.436 2.618-0.654 0.436 0 0.654-0.218 1.09-0.436 0.218 0 0.218-0.218 0.436-0.437 0.436-0.218 0.654-0.436 1.091-0.218 0.218 0.218 0.654 0.218 0.872 0h0.218c1.309 0 2.617-0.218 4.144 0 0.218 0 0.436 0 0.436 0 0.654-0.436 1.527-0.436 2.399-0.436 0.218 0 0.654 0 0.872 0h0.218c0.872 0 1.745 0 2.399 0.218 0.654 0 1.09 0.218 1.745 0.436 0.654 0 1.09 0 1.745 0.218 0.436 0 0.872 0 1.308 0 0.218 0 0.436 0 0.437 0 0.872 0.218 1.745 0.218 2.617 0.219 0.654 0.218 1.309 0.436 2.181 0.436 0.218 0 0.436 0 0.654 0 0.218 0 0.436 0.218 0.654 0.218l0.218 0.218c0.872 0 1.527 0.436 2.399 0.436 0.218 0 0.654 0 0.873 0.218 0.654 0.436 1.527 0.654 2.399 0.654 0.436 0 0.654 0.218 0.872 0.437 0.654 0.218 1.09 0.436 1.745 0.654 0.436 0.218 0.872 0 1.308 0.218 0.654 0.218 1.527 0.436 2.181 1.09 0.436 0.436 0.872 0.436 1.527 0.873 0.218 0 0.436 0.218 0.654 0.436 0.654 0.436 1.309 0.872 1.963 1.09 0.218 0 0.436 0.218 0.654 0.219 0.654 0.436 1.309 1.09 2.181 1.526 0.436 0.218 0.654 0.436 1.091 0.654h0.218c0.654 0.654 1.527 1.09 2.181 1.745 0.654 0.654 1.09 1.09 1.962 1.527 0 0 0 0 0 0.218 0.218 0.436 0.436 0.654 0.873 0.872 0.436 0.218 0.654 0.436 0.872 0.655 0.654 0.436 1.309 0.872 1.745 1.308 0.218 0.218 0.436 0.436 0.872 0.872 0.218 0.218 0.436 0.436 0.654 0.437 0.872 0.218 1.309 0.872 1.963 1.526 0.436 0.436 1.09 1.09 1.527 1.527 0.218 0.218 0.436 0.654 0.654 1.09 0.436 1.309 1.09 2.617 1.745 3.708 0 0 0 0.218 0.218 0.436v0.218c0.436 0.436 0.654 1.09 1.09 1.527 0.218 0.218 0.218 0.436 0.437 0.654 0.436 0.654 0.654 1.527 1.09 2.181 0.654 1.09 1.09 2.181 1.527 3.271v0.218c0.218 0.436 0.436 0.872 0.654 1.527 0 0.436 0.436 0.872 0.654 1.527 0.218 1.09 0.872 2.181 1.091 3.489 0 0.218 0.218 0.436 0.218 0.873 0.218 0.654 0.436 1.309 0.654 1.962 0 0.218 0.218 0.436 0.436 0.655 0.436 0.436 0.436 0.872 0.436 1.308-0.218 0.872 0 1.745 0.219 2.617 0 0.218 0 0.436 0 0.873 0.218 0.872 0.436 1.963 0.436 2.835 0 0.218 0 0.654 0 0.872 0 0.654 0.218 1.309 0.654 1.963 0 0.218 0.218 0.218 0.218 0.218 0.218 0.218 0.436 0.654 0.654 0.872 0.218 0.218 0.218 0.218 0.437 0.437 0.436 0.436 0.654 0.872 0.654 1.526 0 0.218-0.218 0.654-0.218 0.873 0 0.218 0 0.654 0.218 0.872 0.218 0.218 0.218 0.436 0.218 0.654 0 0.218-0.218 0.436-0.436 0.436v0c-0.218 0.654-1.09 0.872-1.309 1.527-0.218 0.872-0.436 1.745-0.654 2.617-0.218 0.654-0.218 1.09-0.218 1.745 0 0.654-0.218 1.09-0.218 1.745-0.218 0.872-0.436 1.745-0.655 2.617 0 0.436-0.218 0.872-0.218 1.308 0.218 0.218 0.436 0.436 0.655 0.436 0.436 0.436 0.872 0.872 1.308 1.309 0.218 0.218 0.218 0.436 0 0.436-0.218 0.218-0.436 0.218-0.654 0.218-0.218-0.218-0.654-0.436-0.872-0.436-0.218-0.218-0.654-0.436-1.091-0.218 0 0.436-0.218 0.872-0.218 1.09-0.218 0.436-0.436 1.09-0.436 1.527-0.218 0.872-0.654 1.527-0.873 2.399-0.436 1.09-0.872 1.963-1.308 2.835-0.218 0.436-0.436 0.872-0.654 1.309v0c0 0.654-0.654 1.309-0.873 1.963-0.436 0.872-0.872 1.745-1.308 2.835-0.218 0.436-0.436 0.872-0.655 1.09-0.436 1.09-0.872 1.963-1.526 2.836-0.436 0.654-0.872 1.09-1.309 1.308-0.436 0.436-0.872 0.872-1.308 1.309-0.218 0.218-0.436 0.436-0.655 0.654-0.218 0.218-0.218 0.218-0.436 0.436-0.436 0.654-1.09 1.09-1.526 1.745-0.436 0.436-0.654 0.872-1.309 1.308-0.436 0.436-0.872 1.09-1.527 1.309-0.218 0.218-0.436 0.654-0.654 0.872-0.218 0.218-0.436 0.654-0.654 0.873 0 0.436 0.218 0.872 0.218 1.09 0 0.654-0.654 0.872-1.09 0.436-0.654-0.436-0.654-0.436-1.309 0-0.654 0.436-1.309 1.09-2.181 1.309-0.218 0-0.218 0.218-0.436 0.218-0.436 0.218-0.654 0.654-1.091 0.872-0.436 0.436-1.09 0.654-1.526 1.091-0.218 0.218-0.436 0.218-0.655 0.436-0.654 0.436-1.309 0.654-1.962 1.308-0.218 0.218-0.436 0.218-0.655 0.437 0 0.218 0 0.218 0 0.436 0 0.436-0.436 0.872-1.09 0.654-0.654-0.218-1.09 0-1.745 0-0.654 0.218-1.309 0.654-1.963 0.872-0.218 0-0.436 0.218-0.654 0.437-0.654 0.436-1.309 0.654-1.963 0.872-0.436 0-0.872 0.436-1.308 0.436-0.218 0-0.436 0.218-0.655 0.218h-0.218c-0.872 0.654-1.745 1.09-2.617 1.745-0.218 0-0.218 0.218-0.436 0.436-0.218 0.436-0.436 0.654-0.872 0.654-1.09 0-1.527 0.872-1.309 1.745 0 0.218 0.218 0.436 0.218 0.654 0.218 0.436 0 0.872-0.218 1.091-0.218 0.218-0.872 0.218-1.09-0.218-0.436-0.436-0.654-0.872-0.873-1.527-0.218-0.436-0.654-0.872-1.09-1.09-0.436-0.218-0.872-0.218-1.309 0-0.218 0-0.218 0.218-0.436 0.218-0.436 0.436-1.09 0.654-1.745 0.436-0.218 0-0.654 0-0.654 0.218-0.218 0.218-0.218 0.654 0 0.872 0.436 0.436 0.218 0.872 0.218 1.527 0 0.872-0.654 1.309-1.526 0.872-0.218-0.218-0.436-0.218-0.655-0.436-0.218 0-0.218-0.218-0.218-0.436-0.218-0.218-0.218-0.654-0.436-1.09-0.436 0.218-0.872 0.218-1.308 0.436-0.218 0-0.436 0.218-0.655 0.218-0.654 0-0.872 0-1.09-0.654-0.218-0.654-0.654-0.654-1.091-0.873-0.872-0.218-1.963-0.218-2.835-0.654h-0.218c-0.872-0.654-1.745-0.654-2.835-0.654-0.654 0-1.309 0.218-1.963 0.218-0.654 0-1.09 0.218-1.527 0.654-0.218 0.218-0.436 0.436-0.654 0.436-0.218-0.218-0.218-0.436-0.436-0.654v-0.218c0-0.218-0.218-0.436-0.436-0.218-0.436 0.218-0.872-0.218-1.309-0.436-0.218-0.218-0.654-0.654-0.654-1.091-0.218-0.218-0.436-0.436-0.654-0.436-0.436 0-1.09-0.218-1.527-0.218-0.218 0-0.436 0-0.436-0.218-0.218-0.218-0.436-0.218-0.872-0.218-0.218 0-0.218-0.218-0.437-0.218 0.436 0.436 0.654 0.872 0.873 1.308 0 0.218 0.218 0.218 0.218 0.436 0.218 0.436 0 0.654-0.654 0.655-0.436 0-0.436 0-0.655 0.218 0 0.436 0 0.654 0 1.09 0 0.218 0 0.436-0.436 0.654 0 0-0.218 0-0.218 0.219-0.218 0.218-0.218 0.436 0 0.654 0.654 0.436 1.09 0.654 1.745 0.872 0.654 0 0.654 0.436 0.872 0.872 0.218 0.436 0 0.654-0.218 1.091-0.436 0.436-0.872 0.872-1.309 1.309-0.654 0.218-1.09 0.872-1.744 0.872-0.436 0-0.872-0.218-1.091-0.654-0.218-1.09-0.218-1.963 0.218-3.054 0-0.218 0.218-0.436 0-0.654-1.963 0-1.963-0.436-1.962-0.654 0-0.436 0.218-0.654 0.218-1.091 0.218-0.436 0-0.654-0.655-0.872-0.218 0-0.436 0-0.654 0-0.218 0-0.218-0.218-0.654-0.218 0.436-0.218 0.654-0.218 1.09-0.436-0.218-0.872-0.436-1.527-1.09-1.963-0.218-0.218-0.436-0.436-0.436-0.872 0-0.654-0.436-1.09-0.655-1.527-0.436-0.654-1.309-0.872-1.962-0.872-0.654-0.218-1.09-0.218-1.745-0.437-0.654-0.218-1.309-0.872-1.963-1.09-0.218-0.218-0.436-0.436-0.872-0.654-0.872-0.436-1.527-1.09-2.181-1.745-0.436-0.218-0.654-0.654-1.091-0.872-0.436-0.436-0.654-0.872-1.09-1.091-0.436-0.436-0.872-0.872-1.527-1.309-0.654-0.436-1.09-1.09-1.745-1.744-0.436-0.654-1.09-1.09-1.744-1.527-0.218 0-0.436 0-0.655 0-0.218 0-0.436 0.218-0.654 0.218-0.654 0.218-1.09 0.654-1.745 0.873 0.218-0.218 0.218-0.218 0-0.655-0.218-0.218-0.436-0.436-0.654-0.436-0.436 0-0.872 0-1.308 0-0.872 0-1.745 0.218-2.617 0.218-0.654 0-1.527 0.218-2.181 0.436 0.218 0.436 0.218 0.654 0.436 1.091-0.436 0.218-0.872 0.218-1.309 0.218-0.218 0-0.654 0.218-0.872 0.436-0.218 0-0.218 0.218-0.436 0-0.436-0.218-0.872 0-1.309 0.218h-0.218c0 0 0-0.218 0.218-0.218 0.218-0.218 0.436-0.436 0.654-0.654 0.218-0.218 0.436-0.218 0.873-0.436-0.218-0.218-0.218-0.436-0.218-0.437-0.218-0.218-0.436-0.218-0.655 0-0.218 0.218-0.436 0.436-0.654 0.655-0.218 0.218-0.436 0.218-0.654 0-0.218-0.218-0.218-0.436 0-0.655 0-0.218 0.218-0.436 0.436-0.654 0.218-0.218 0.218-0.436 0.436-0.654-0.436-0.436-0.654-0.872-1.09-1.091-0.654-0.436-1.309-1.09-1.745-1.744-0.436-0.872-1.09-1.527-1.963-1.963-0.218-0.218-0.436-0.436-0.654-0.654-0.218-0.218-0.218-0.218-0.436-0.437-0.654 0.218-1.09 0.654-1.745 0.873-0.218 0-0.218 0.218-0.436 0.436-0.218 0.436-0.654 0.436-1.091 0.436-0.218 0-0.436-0.218-0.218-0.436 0.218-0.436 0.436-0.872 1.091-0.654 0 0 0.218 0 0.218-0.218 0.436-0.436 0.872-1.09 1.527-1.527-0.218-0.654-0.654-1.09-0.873-1.527-0.218-0.218-0.218-0.436-0.218-0.872 0-0.218 0-0.218-0.218-0.436 0 0-0.218 0-0.436 0.218-0.218 0.218-0.654 0.436-1.091 0 0-0.218 0-0.436 0.218-0.654l0.219-0.218c0.654-0.218 0.654-0.872 0.654-1.527v-0.218c-0.218-0.436-0.218-0.654 0.218-1.091 0.654-0.436 1.309-1.309 1.527-1.962 0.218-0.436 0.654-0.654 1.09-1.091 0.436-0.436 0.872-0.872 1.09-1.527h0.219c0.872 0.218 1.09-0.436 1.526-1.09 0-0.218 0-0.436 0.218-0.436 0.436-0.436 0.436-0.872 0.218-1.527 0-0.218-0.218-0.654-0.218-0.872 0-0.218 0-0.218-0.218-0.436-0.654-0.436-0.654-0.872 0-1.309 0.436-0.218 0.436-0.654 0.654-0.872 0.218-0.436 0.218-0.872 0.219-1.527-0.218-0.654-0.218-1.527-0.437-2.181-0.218-0.872-0.436-1.963-0.654-2.835 0-0.218 0-0.218 0-0.436 0-0.654 0-1.09-0.218-1.745-0.218-0.218-0.218-0.654-0.218-0.872-0.218-0.654-0.436-1.09-1.091-1.309-0.654-0.436-1.527-0.654-2.18-1.09-0.218-0.218-0.436 0-0.655 0.218-0.218 0.436-0.654 0.872-0.872 1.308-0.218 0.218-0.436 0.654-0.654 1.091-0.436 0.436-1.309 0.872-1.963 0.218-0.218-0.436-0.436-0.654 0-1.091 0.436-0.654 0.872-1.309 1.526-1.744 0.218-0.218 0.436-0.654 0.655-0.873 0.218-0.436 0.218-0.872 0.218-1.308-0.218-0.872-0.436-1.745-0.436-2.835 0-1.09 0-1.963 0.218-3.054 0.218-0.436 0.218-1.09 0.436-1.526 0-0.218 0.218-0.654 0.436-0.873 0.436-0.436 0.872-0.872 1.091-1.526 0.218-0.654 0.654-1.309 0.654-1.963 0-0.218 0.218-0.436 0.218-0.654 0-0.218 0.218-0.654 0.218-0.873-0.218-0.654 0-1.09 0.218-1.526 0.218-0.436 0.436-1.09 0.654-1.527 0.436-0.872 0.436-1.963 1.309-2.835 0.218-0.436 0.436-0.872 0.654-1.309 0.218-0.872 0.654-1.527 1.091-2.181 0.218-0.218 0.218-0.218 0.218-0.436 0.218-0.654 0.654-1.309 1.09-1.963 0.436-0.654 0.436-1.309 0.654-1.962 0-0.218 0-0.436 0.219-0.655 0.654-0.654 0.436-1.527 0.218-2.399-0.436-1.09-0.654-2.181-0.437-3.271 0-0.218 0-0.436 0.219-0.436 0.218-0.436 0.218-0.654 0.436-1.091v-0.218c0.436-0.436 0.872-1.09 1.526-1.308 0.872-0.436 1.745-0.654 2.836-0.873 0.872 0 1.745-0.436 2.399-1.308 0-0.218 0.218-0.218 0.436-0.437l0.218-0.218c0.218-0.436 0.436-0.654 0.654-0.872 0.436-0.436 0.872-1.09 1.309-1.527 0.436-0.436 0.872-1.09 1.526-1.744l0.218-0.218c0.436-0.436 0.872-0.872 1.309-1.091 0.436-0.436 0.872-0.872 1.308-1.308 0.436-0.436 0.654-0.872 1.091-1.309 0.436-0.218 0.872-0.654 1.308-1.09 0.436-0.436 0.872-0.872 1.091-1.091 0.436-0.436 1.09-0.872 1.527-1.09 0.436-0.218 0.872-0.436 1.09-1.091 0.218-0.654 0.436-1.09 0.654-1.745 0-0.436 0.218-0.872 0.436-1.308 0.218 0 0.436 0 0.873-0.218-0.218-0.218-0.436-0.218-0.436-0.436 0-0.218 0.218-0.436 0.218-0.437 0-0.218 0.218-0.436 0.218-0.654 0 0 0.218 0 0.218-0.218 0 0 0.218 0 0.218-0.218-0.436 0.218-0.654 0-0.872-0.218 0.218 0.218 0.436 0.218 0.872 0.436 0 0 0.218 0 0.218-0.218 0-0.218 0-0.436 0-0.436 0 0-0.218 0-0.436 0-0.218 0-0.436 0.218-0.654 0.218zM71.131 157.536c0-0.218-0.218-0.218-0.218-0.436-0.218-0.436 0-0.654 0.218-0.873 0.218-0.218 0.436-0.218 0.873-0.218 0.436 0.218 0.654 0.436 0.654 0.873 0 0.218 0 0.654 0 0.872 0.218 0.872 0.218 0.872 1.091 0.872 0.436 0 0.872 0 1.308 0 0.872-0.218 1.745-0.654 2.617-0.872 0.872-0.218 1.745-0.436 2.617-0.654 0.218 0 0.436 0 0.873 0 0.872 0.218 1.527 0 2.181-0.437 0.218-0.218 0.654-0.218 0.872-0.436 0.436-0.218 0.872-0.218 1.308-0.436 1.09-0.654 2.181-1.09 3.054-1.745 0.654-0.436 1.309-0.872 1.963-1.308 0.654-0.436 1.309-0.872 1.962-1.309 0.436-0.218 1.09-0.654 1.527-1.09 0.872-0.654 1.527-1.309 2.399-1.745 0.436-0.218 0.654-0.436 0.872-0.654 0.436-0.218 0.654-0.654 1.091-0.873 0.218-0.218 0.436-0.436 0.872-0.654 0.218-0.218 0.218-0.218 0.218-0.436 0.654-0.436 1.309-1.309 1.745-1.963 0.436-0.436 0.872-0.872 1.309-1.526 0.654-0.654 1.09-1.527 1.744-2.399 0.436-0.436 0.872-1.09 1.091-1.527 0.436-0.872 0.872-1.745 1.526-2.399v-0.218c0.436-0.872 0.872-1.745 1.309-2.617 0.654-1.09 1.09-2.399 1.745-3.49 0.218-0.436 0.436-0.872 0.436-1.308 0.436-0.872 0.654-1.745 0.872-2.617 0-0.218 0-0.218 0.218-0.437 0.654-1.309 1.09-2.617 1.309-4.143 0.218-0.872 0.436-1.745 0.654-2.617 0.436-1.309 0.436-2.399 0.654-3.708 0.218-0.872 0.218-1.963 0.218-2.835 0.218-1.309 0.218-2.835 0-4.144 0-1.09-0.218-2.399-0.218-3.489 0-1.09-0.218-1.963-0.436-3.054-0.218-1.09-0.436-1.963-0.654-3.053-0.436-0.872-0.654-1.745-0.872-2.835-0.218-0.872-0.654-1.527-0.655-2.399 0-0.654-0.218-1.309-0.872-1.527-0.654-0.218-1.09-0.436-1.745-0.872-1.309-0.872-1.963-1.963-1.744-3.271 0-0.654 0.218-1.527 0.436-2.181 0.218-0.654 0.436-1.309 0-1.745-0.218-0.654-0.654-1.09-0.873-1.527-0.436-0.654-0.654-1.09-1.09-1.526-0.436-0.872-0.872-1.745-1.527-2.399-0.872-1.09-1.527-2.181-2.617-3.054l-0.218-0.218c-0.654-0.872-1.309-1.745-2.181-2.399-0.436-0.436-0.872-0.872-1.308-1.09-0.218-0.218-0.436-0.436-0.873-0.654-0.654-0.436-1.309-0.654-1.745-1.091-0.654-0.654-1.527-1.09-2.18-1.527 0 0-0.218 0-0.219-0.218-0.872-0.436-1.527-0.654-2.399-1.09-0.872-0.436-1.745-0.654-2.617-0.654-0.218 0-0.218 0-0.436 0-0.218-0.218-0.654-0.218-0.872-0.218-0.218 0-0.218 0-0.436 0-0.436-0.218-1.09 0-1.527 0-0.872 0.218-1.745 0.218-2.617-0.219-1.09-0.436-1.963-0.872-2.835-1.308-0.654-0.436-1.09-0.872-1.745-1.309-1.309-1.09-2.617-2.399-4.144-3.489 0.218-1.09-0.218-1.309-1.09-1.309-0.436 0-0.872 0.218-1.309 0.437-0.218 0.218-0.218 0.218-0.436 0.436-0.654 0.436-1.09 1.09-1.745 1.526-1.09 0.654-1.527 0.436-2.399 0-0.218-0.218-0.436-0.436-0.654-0.654-0.436-0.436-0.872-1.09-1.09-1.527-0.436-0.872-1.309-0.872-2.181-0.872-0.436 0-1.09 0.218-1.527 0.218-0.872 0-1.745 0.436-2.181 1.091-0.436 0.654-0.872 1.309-1.526 1.962-0.218 0.218-0.654 0.436-0.873 0.873-0.436 0.436-0.872 0.436-1.308 0-0.218-0.218-0.436-0.218-0.655-0.436-0.218 0.218-0.436 0.436-0.436 0.654-0.218 0.436-0.436 0.872-0.654 1.527-0.218 0.654-0.654 1.309-1.091 1.744-0.218 0.218-0.218 0.218-0.436 0.436-0.218 0.436-0.872 0.654-1.308 0.655-0.436 0.436-0.872 1.09-1.091 1.526-0.218 0.436-0.436 0.872-0.654 1.527-0.218 0.218-0.218 0.654-0.436 0.872-0.218 0.436-0.218 0.654-0.218 1.091 0.218 0.654-0.218 0.872-0.873 1.09-0.436 0-0.436 0-0.654 0.436 0 0.654 0.218 1.09 0.436 1.745 0.218 0.218 0.436 0.654 0.436 0.873 0 0.436 0.218 0.654 0.655 0.872 0.218 0.218 0.436 0.436 0.654 0.436 0.218 0 0.218 0.218 0.436 0.218 0.218 0.218 0.436 0 0.436-0.218 0.218-0.654 0.436-1.309 0.437-1.963 0.218-0.872 0.218-1.527 0.436-2.399 0.218-0.436 0.436-0.654 0.654-0.872 0 0 0.218 0 0.436 0v0.218c-0.218 1.09-0.654 2.399-0.872 3.489-0.218 0.436-0.218 0.872-0.436 1.309 0 0.218-0.218 0.436-0.437 0.436-0.436 0.218-0.872 0.436-1.308 0.436-0.218 0-0.436 0-0.654 0-0.436-0.218-0.872-0.654-1.309-0.872-0.218-0.218-0.436-0.436-0.654-0.654-0.218-0.436-0.436-0.872-0.654-1.309-0.218-0.436-0.436-0.654-0.873-0.872-0.218-0.218-0.436-0.218-0.654-0.436-0.436-0.436-0.872-0.654-1.527-0.655-0.218 0-0.654 0-0.872 0-0.218 0-0.654 0.218-0.872 0.437-0.436 0.218-0.654 0.218-1.091 0-1.09-0.436-2.181-0.218-3.271 0.218-0.436 0.218-0.872 0.436-1.309 0.436-1.09 0-1.963 0-3.053 0-1.09 0-1.963-0.218-3.053-0.436-0.436 0-0.872 0-1.309 0-0.872 0.218-1.09 0.872-0.872 1.744 0.218 0.872 0.436 1.963 0.436 2.836 0 0.654 0 1.309 0 1.962 0 0.436 0 0.654 0 1.091 0 0.654-0.218 1.309-0.218 1.963-0.218 1.309-0.872 2.399-1.745 3.271-0.654 0.654-1.527 1.309-2.399 1.527-0.436 0.218-0.872 0.436-1.527 0.654-1.09 0.436-1.963 1.309-2.617 2.399-0.218 0.436-0.436 0.872-0.654 1.309-0.436 0.654-0.654 1.09-1.09 1.744-0.218 0.436-0.654 0.872-0.873 1.309-0.218 0.436-0.654 0.654-0.654 1.09-0.436 0.872-0.654 1.745-1.09 2.617-0.218 0.436-0.218 1.09-0.437 1.527-0.436 0.872-0.436 1.745-0.436 2.835 0 0.218 0 0.436 0 0.873 0 1.09-0.218 2.399-0.218 3.489 0 1.09 0 2.181 0.218 3.271 0 0.436 0 1.09 0 1.527 0 0.872 0.218 1.963 0.218 2.835 0 0.872 0 1.963 0.436 2.835v0.218c0.218 0.872 0.218 1.745 0.437 2.618 0 0.218 0 0.436 0.218 0.654 0.436 1.309 0.654 2.399 1.09 3.707 0.218 0.872 0.654 1.745 0.873 2.617 0.218 0.872 1.09 1.745 1.308 2.836v0c0.654 1.309 1.309 2.617 2.181 3.925 0.218 0.436 0.654 0.872 0.872 1.309 0.436 0.654 0.654 1.309 1.091 1.745 0.218 0.436 0.654 0.872 0.872 1.09 0.218 0.436 0.436 0.872 0.873 1.309 0.436 0.436 0.872 1.09 1.308 1.526 0.654 1.09 1.527 1.963 2.399 2.617 0.436 0.436 0.872 0.654 1.309 1.091 0.218 0.218 0.436 0.218 0.436 0.436 0.218 0.218 0.436 0.436 0.872 0.654 1.745 0.872 3.053 2.181 4.58 3.49 0.654 0.654 1.309 1.309 2.181 1.744 0.872 0.654 1.527 1.309 2.617 1.527 0 0 0.218 0 0.218 0.218 0.436 0.436 1.09 0.654 1.527 0.873 0.872 0.436 1.963 0.872 2.835 1.308 0.218 0.218 0.654 0.218 0.872 0.436 0.654 0.218 1.309 0.436 1.963 0.655 0.654 0.218 1.09 0.436 1.745 0.436h0.218c0.436 0.218 0.654 0.218 1.09 0 0.218 0 0.436 0 0.437 0.218 0 0.218 0.218 0.218 0.436 0.218 0.218 0 0.436 0 0.872 0 0.218-0.218 0.218-0.436 0.436-0.872 0.218 0.218 0.436 0.218 0.437 0.218 0.218 0.436 0.654 0.436 1.09 0.436h0.218c0.436 0 0.654 0 0.872-0.218 0-0.218 0.436-0.218 0.655-0.218 0.654 0.218 1.309 0.218 1.963 0.436 0.436 0.218 1.09 0.218 1.308-0.218 0.218-0.218 0.436-0.436 0.872-0.218 0.436 0.218 0.654 0.218 1.091 0 0.218 0 0.436 0 0.436 0 0.654 0.218 1.09 0.218 1.745 0.436 0.872 0.218 0.872 0.218 1.526-0.436 0.218-0.218 0.654-0.218 0.873 0 0.218 0.436 0.218 0.654 0.218 1.09 0.218 0 0.218 0 0.436-0.218 0-0.436 0.218-0.436 0.654-0.654 0.218 0.218 0.218 0.218 0.437 0.218 0.436 0.436 0.654 0.436 0.872-0.218 0-0.218 0-0.436 0.218-0.436 0.218 0 0.436 0.218 0.436 0.218 0.218 0.436 0.654 0.654 0.873 1.09 0.436 0.436 1.09 0.436 1.308 0 0.218-0.218 0.436-0.218 0.654-0.218 0-0.218 0-0.436 0-0.654 0.654 0.436 0.436 0.436 0.218 0.436zM34.928 55.687c0.654 0.218 1.09 0.218 1.309-0.218-0.436 0.218-0.872-0.218-1.309 0.218z" fill="url(#74a5537d-8c9d-496b-9755-f35778b12780)" fill-rule="nonzero" stroke="none" stroke-width="1" stroke-linecap="butt" stroke-linejoin="miter" stroke-miterlimit="10" stroke-dasharray="" stroke-dashoffset="0" font-family="none" font-weight="none" font-size="none" text-anchor="none" style="mix-blend-mode: normal" data-fill-palette-color="tertiary"></path></g><g transform="matrix(1,0,0,1,39.325,84.825)"><svg viewBox="0 0 46.35 55.349999999999994" height="55.349999999999994" width="46.35"><g><svg viewBox="0 0 46.35 55.349999999999994" height="55.349999999999994" width="46.35"><g><svg viewBox="0 0 46.35 55.349999999999994" height="55.349999999999994" width="46.35"><g id="textblocktransform"><svg viewBox="0 0 46.35 55.349999999999994" height="55.349999999999994" width="46.35" id="textblock"><g><svg viewBox="0 0 46.35 55.349999999999994" height="55.349999999999994" width="46.35"><g transform="matrix(1,0,0,1,0,0)"><svg width="46.35" viewBox="2.35 -36.35 30.9 36.9" height="55.349999999999994" data-palette-color="url(#8f6e92fc-dbbc-41f1-83a9-3c898a7ece0d)"></svg></g></svg></g></svg></g></svg></g><g></g></svg></g></svg></g></svg></g><defs></defs><mask id="592433ce-9942-4f2a-9bbc-f114800ed2b6"><g id="SvgjsG1385"><svg viewBox="0 0 125 225" height="225" width="125"><g><svg></svg></g><g><svg viewBox="0 0 125 225" height="225" width="125"><g><path d="M33.402 55.033c0-0.436 0.218-0.872 0.654-0.872 0.436 0 0.872 0.218 0.872 0.872 0.218 0 0.654 0 0.873-0.218 0.872 0 1.745-0.218 2.399 0 0.654 0.218 1.09 0.218 1.744 0.436 0.654 0.218 1.09 0 1.527-0.218 0.872-0.218 1.527-0.654 2.399-0.872 0.436-0.218 0.654-0.218 1.091-0.218 0.436-0.218 0.872-0.218 1.526-0.437 1.09-0.218 2.181-0.436 3.053-0.872 0.872-0.436 1.745-0.436 2.618-0.654 0.436 0 0.654-0.218 1.09-0.436 0.218 0 0.218-0.218 0.436-0.437 0.436-0.218 0.654-0.436 1.091-0.218 0.218 0.218 0.654 0.218 0.872 0h0.218c1.309 0 2.617-0.218 4.144 0 0.218 0 0.436 0 0.436 0 0.654-0.436 1.527-0.436 2.399-0.436 0.218 0 0.654 0 0.872 0h0.218c0.872 0 1.745 0 2.399 0.218 0.654 0 1.09 0.218 1.745 0.436 0.654 0 1.09 0 1.745 0.218 0.436 0 0.872 0 1.308 0 0.218 0 0.436 0 0.437 0 0.872 0.218 1.745 0.218 2.617 0.219 0.654 0.218 1.309 0.436 2.181 0.436 0.218 0 0.436 0 0.654 0 0.218 0 0.436 0.218 0.654 0.218l0.218 0.218c0.872 0 1.527 0.436 2.399 0.436 0.218 0 0.654 0 0.873 0.218 0.654 0.436 1.527 0.654 2.399 0.654 0.436 0 0.654 0.218 0.872 0.437 0.654 0.218 1.09 0.436 1.745 0.654 0.436 0.218 0.872 0 1.308 0.218 0.654 0.218 1.527 0.436 2.181 1.09 0.436 0.436 0.872 0.436 1.527 0.873 0.218 0 0.436 0.218 0.654 0.436 0.654 0.436 1.309 0.872 1.963 1.09 0.218 0 0.436 0.218 0.654 0.219 0.654 0.436 1.309 1.09 2.181 1.526 0.436 0.218 0.654 0.436 1.091 0.654h0.218c0.654 0.654 1.527 1.09 2.181 1.745 0.654 0.654 1.09 1.09 1.962 1.527 0 0 0 0 0 0.218 0.218 0.436 0.436 0.654 0.873 0.872 0.436 0.218 0.654 0.436 0.872 0.655 0.654 0.436 1.309 0.872 1.745 1.308 0.218 0.218 0.436 0.436 0.872 0.872 0.218 0.218 0.436 0.436 0.654 0.437 0.872 0.218 1.309 0.872 1.963 1.526 0.436 0.436 1.09 1.09 1.527 1.527 0.218 0.218 0.436 0.654 0.654 1.09 0.436 1.309 1.09 2.617 1.745 3.708 0 0 0 0.218 0.218 0.436v0.218c0.436 0.436 0.654 1.09 1.09 1.527 0.218 0.218 0.218 0.436 0.437 0.654 0.436 0.654 0.654 1.527 1.09 2.181 0.654 1.09 1.09 2.181 1.527 3.271v0.218c0.218 0.436 0.436 0.872 0.654 1.527 0 0.436 0.436 0.872 0.654 1.527 0.218 1.09 0.872 2.181 1.091 3.489 0 0.218 0.218 0.436 0.218 0.873 0.218 0.654 0.436 1.309 0.654 1.962 0 0.218 0.218 0.436 0.436 0.655 0.436 0.436 0.436 0.872 0.436 1.308-0.218 0.872 0 1.745 0.219 2.617 0 0.218 0 0.436 0 0.873 0.218 0.872 0.436 1.963 0.436 2.835 0 0.218 0 0.654 0 0.872 0 0.654 0.218 1.309 0.654 1.963 0 0.218 0.218 0.218 0.218 0.218 0.218 0.218 0.436 0.654 0.654 0.872 0.218 0.218 0.218 0.218 0.437 0.437 0.436 0.436 0.654 0.872 0.654 1.526 0 0.218-0.218 0.654-0.218 0.873 0 0.218 0 0.654 0.218 0.872 0.218 0.218 0.218 0.436 0.218 0.654 0 0.218-0.218 0.436-0.436 0.436v0c-0.218 0.654-1.09 0.872-1.309 1.527-0.218 0.872-0.436 1.745-0.654 2.617-0.218 0.654-0.218 1.09-0.218 1.745 0 0.654-0.218 1.09-0.218 1.745-0.218 0.872-0.436 1.745-0.655 2.617 0 0.436-0.218 0.872-0.218 1.308 0.218 0.218 0.436 0.436 0.655 0.436 0.436 0.436 0.872 0.872 1.308 1.309 0.218 0.218 0.218 0.436 0 0.436-0.218 0.218-0.436 0.218-0.654 0.218-0.218-0.218-0.654-0.436-0.872-0.436-0.218-0.218-0.654-0.436-1.091-0.218 0 0.436-0.218 0.872-0.218 1.09-0.218 0.436-0.436 1.09-0.436 1.527-0.218 0.872-0.654 1.527-0.873 2.399-0.436 1.09-0.872 1.963-1.308 2.835-0.218 0.436-0.436 0.872-0.654 1.309v0c0 0.654-0.654 1.309-0.873 1.963-0.436 0.872-0.872 1.745-1.308 2.835-0.218 0.436-0.436 0.872-0.655 1.09-0.436 1.09-0.872 1.963-1.526 2.836-0.436 0.654-0.872 1.09-1.309 1.308-0.436 0.436-0.872 0.872-1.308 1.309-0.218 0.218-0.436 0.436-0.655 0.654-0.218 0.218-0.218 0.218-0.436 0.436-0.436 0.654-1.09 1.09-1.526 1.745-0.436 0.436-0.654 0.872-1.309 1.308-0.436 0.436-0.872 1.09-1.527 1.309-0.218 0.218-0.436 0.654-0.654 0.872-0.218 0.218-0.436 0.654-0.654 0.873 0 0.436 0.218 0.872 0.218 1.09 0 0.654-0.654 0.872-1.09 0.436-0.654-0.436-0.654-0.436-1.309 0-0.654 0.436-1.309 1.09-2.181 1.309-0.218 0-0.218 0.218-0.436 0.218-0.436 0.218-0.654 0.654-1.091 0.872-0.436 0.436-1.09 0.654-1.526 1.091-0.218 0.218-0.436 0.218-0.655 0.436-0.654 0.436-1.309 0.654-1.962 1.308-0.218 0.218-0.436 0.218-0.655 0.437 0 0.218 0 0.218 0 0.436 0 0.436-0.436 0.872-1.09 0.654-0.654-0.218-1.09 0-1.745 0-0.654 0.218-1.309 0.654-1.963 0.872-0.218 0-0.436 0.218-0.654 0.437-0.654 0.436-1.309 0.654-1.963 0.872-0.436 0-0.872 0.436-1.308 0.436-0.218 0-0.436 0.218-0.655 0.218h-0.218c-0.872 0.654-1.745 1.09-2.617 1.745-0.218 0-0.218 0.218-0.436 0.436-0.218 0.436-0.436 0.654-0.872 0.654-1.09 0-1.527 0.872-1.309 1.745 0 0.218 0.218 0.436 0.218 0.654 0.218 0.436 0 0.872-0.218 1.091-0.218 0.218-0.872 0.218-1.09-0.218-0.436-0.436-0.654-0.872-0.873-1.527-0.218-0.436-0.654-0.872-1.09-1.09-0.436-0.218-0.872-0.218-1.309 0-0.218 0-0.218 0.218-0.436 0.218-0.436 0.436-1.09 0.654-1.745 0.436-0.218 0-0.654 0-0.654 0.218-0.218 0.218-0.218 0.654 0 0.872 0.436 0.436 0.218 0.872 0.218 1.527 0 0.872-0.654 1.309-1.526 0.872-0.218-0.218-0.436-0.218-0.655-0.436-0.218 0-0.218-0.218-0.218-0.436-0.218-0.218-0.218-0.654-0.436-1.09-0.436 0.218-0.872 0.218-1.308 0.436-0.218 0-0.436 0.218-0.655 0.218-0.654 0-0.872 0-1.09-0.654-0.218-0.654-0.654-0.654-1.091-0.873-0.872-0.218-1.963-0.218-2.835-0.654h-0.218c-0.872-0.654-1.745-0.654-2.835-0.654-0.654 0-1.309 0.218-1.963 0.218-0.654 0-1.09 0.218-1.527 0.654-0.218 0.218-0.436 0.436-0.654 0.436-0.218-0.218-0.218-0.436-0.436-0.654v-0.218c0-0.218-0.218-0.436-0.436-0.218-0.436 0.218-0.872-0.218-1.309-0.436-0.218-0.218-0.654-0.654-0.654-1.091-0.218-0.218-0.436-0.436-0.654-0.436-0.436 0-1.09-0.218-1.527-0.218-0.218 0-0.436 0-0.436-0.218-0.218-0.218-0.436-0.218-0.872-0.218-0.218 0-0.218-0.218-0.437-0.218 0.436 0.436 0.654 0.872 0.873 1.308 0 0.218 0.218 0.218 0.218 0.436 0.218 0.436 0 0.654-0.654 0.655-0.436 0-0.436 0-0.655 0.218 0 0.436 0 0.654 0 1.09 0 0.218 0 0.436-0.436 0.654 0 0-0.218 0-0.218 0.219-0.218 0.218-0.218 0.436 0 0.654 0.654 0.436 1.09 0.654 1.745 0.872 0.654 0 0.654 0.436 0.872 0.872 0.218 0.436 0 0.654-0.218 1.091-0.436 0.436-0.872 0.872-1.309 1.309-0.654 0.218-1.09 0.872-1.744 0.872-0.436 0-0.872-0.218-1.091-0.654-0.218-1.09-0.218-1.963 0.218-3.054 0-0.218 0.218-0.436 0-0.654-1.963 0-1.963-0.436-1.962-0.654 0-0.436 0.218-0.654 0.218-1.091 0.218-0.436 0-0.654-0.655-0.872-0.218 0-0.436 0-0.654 0-0.218 0-0.218-0.218-0.654-0.218 0.436-0.218 0.654-0.218 1.09-0.436-0.218-0.872-0.436-1.527-1.09-1.963-0.218-0.218-0.436-0.436-0.436-0.872 0-0.654-0.436-1.09-0.655-1.527-0.436-0.654-1.309-0.872-1.962-0.872-0.654-0.218-1.09-0.218-1.745-0.437-0.654-0.218-1.309-0.872-1.963-1.09-0.218-0.218-0.436-0.436-0.872-0.654-0.872-0.436-1.527-1.09-2.181-1.745-0.436-0.218-0.654-0.654-1.091-0.872-0.436-0.436-0.654-0.872-1.09-1.091-0.436-0.436-0.872-0.872-1.527-1.309-0.654-0.436-1.09-1.09-1.745-1.744-0.436-0.654-1.09-1.09-1.744-1.527-0.218 0-0.436 0-0.655 0-0.218 0-0.436 0.218-0.654 0.218-0.654 0.218-1.09 0.654-1.745 0.873 0.218-0.218 0.218-0.218 0-0.655-0.218-0.218-0.436-0.436-0.654-0.436-0.436 0-0.872 0-1.308 0-0.872 0-1.745 0.218-2.617 0.218-0.654 0-1.527 0.218-2.181 0.436 0.218 0.436 0.218 0.654 0.436 1.091-0.436 0.218-0.872 0.218-1.309 0.218-0.218 0-0.654 0.218-0.872 0.436-0.218 0-0.218 0.218-0.436 0-0.436-0.218-0.872 0-1.309 0.218h-0.218c0 0 0-0.218 0.218-0.218 0.218-0.218 0.436-0.436 0.654-0.654 0.218-0.218 0.436-0.218 0.873-0.436-0.218-0.218-0.218-0.436-0.218-0.437-0.218-0.218-0.436-0.218-0.655 0-0.218 0.218-0.436 0.436-0.654 0.655-0.218 0.218-0.436 0.218-0.654 0-0.218-0.218-0.218-0.436 0-0.655 0-0.218 0.218-0.436 0.436-0.654 0.218-0.218 0.218-0.436 0.436-0.654-0.436-0.436-0.654-0.872-1.09-1.091-0.654-0.436-1.309-1.09-1.745-1.744-0.436-0.872-1.09-1.527-1.963-1.963-0.218-0.218-0.436-0.436-0.654-0.654-0.218-0.218-0.218-0.218-0.436-0.437-0.654 0.218-1.09 0.654-1.745 0.873-0.218 0-0.218 0.218-0.436 0.436-0.218 0.436-0.654 0.436-1.091 0.436-0.218 0-0.436-0.218-0.218-0.436 0.218-0.436 0.436-0.872 1.091-0.654 0 0 0.218 0 0.218-0.218 0.436-0.436 0.872-1.09 1.527-1.527-0.218-0.654-0.654-1.09-0.873-1.527-0.218-0.218-0.218-0.436-0.218-0.872 0-0.218 0-0.218-0.218-0.436 0 0-0.218 0-0.436 0.218-0.218 0.218-0.654 0.436-1.091 0 0-0.218 0-0.436 0.218-0.654l0.219-0.218c0.654-0.218 0.654-0.872 0.654-1.527v-0.218c-0.218-0.436-0.218-0.654 0.218-1.091 0.654-0.436 1.309-1.309 1.527-1.962 0.218-0.436 0.654-0.654 1.09-1.091 0.436-0.436 0.872-0.872 1.09-1.527h0.219c0.872 0.218 1.09-0.436 1.526-1.09 0-0.218 0-0.436 0.218-0.436 0.436-0.436 0.436-0.872 0.218-1.527 0-0.218-0.218-0.654-0.218-0.872 0-0.218 0-0.218-0.218-0.436-0.654-0.436-0.654-0.872 0-1.309 0.436-0.218 0.436-0.654 0.654-0.872 0.218-0.436 0.218-0.872 0.219-1.527-0.218-0.654-0.218-1.527-0.437-2.181-0.218-0.872-0.436-1.963-0.654-2.835 0-0.218 0-0.218 0-0.436 0-0.654 0-1.09-0.218-1.745-0.218-0.218-0.218-0.654-0.218-0.872-0.218-0.654-0.436-1.09-1.091-1.309-0.654-0.436-1.527-0.654-2.18-1.09-0.218-0.218-0.436 0-0.655 0.218-0.218 0.436-0.654 0.872-0.872 1.308-0.218 0.218-0.436 0.654-0.654 1.091-0.436 0.436-1.309 0.872-1.963 0.218-0.218-0.436-0.436-0.654 0-1.091 0.436-0.654 0.872-1.309 1.526-1.744 0.218-0.218 0.436-0.654 0.655-0.873 0.218-0.436 0.218-0.872 0.218-1.308-0.218-0.872-0.436-1.745-0.436-2.835 0-1.09 0-1.963 0.218-3.054 0.218-0.436 0.218-1.09 0.436-1.526 0-0.218 0.218-0.654 0.436-0.873 0.436-0.436 0.872-0.872 1.091-1.526 0.218-0.654 0.654-1.309 0.654-1.963 0-0.218 0.218-0.436 0.218-0.654 0-0.218 0.218-0.654 0.218-0.873-0.218-0.654 0-1.09 0.218-1.526 0.218-0.436 0.436-1.09 0.654-1.527 0.436-0.872 0.436-1.963 1.309-2.835 0.218-0.436 0.436-0.872 0.654-1.309 0.218-0.872 0.654-1.527 1.091-2.181 0.218-0.218 0.218-0.218 0.218-0.436 0.218-0.654 0.654-1.309 1.09-1.963 0.436-0.654 0.436-1.309 0.654-1.962 0-0.218 0-0.436 0.219-0.655 0.654-0.654 0.436-1.527 0.218-2.399-0.436-1.09-0.654-2.181-0.437-3.271 0-0.218 0-0.436 0.219-0.436 0.218-0.436 0.218-0.654 0.436-1.091v-0.218c0.436-0.436 0.872-1.09 1.526-1.308 0.872-0.436 1.745-0.654 2.836-0.873 0.872 0 1.745-0.436 2.399-1.308 0-0.218 0.218-0.218 0.436-0.437l0.218-0.218c0.218-0.436 0.436-0.654 0.654-0.872 0.436-0.436 0.872-1.09 1.309-1.527 0.436-0.436 0.872-1.09 1.526-1.744l0.218-0.218c0.436-0.436 0.872-0.872 1.309-1.091 0.436-0.436 0.872-0.872 1.308-1.308 0.436-0.436 0.654-0.872 1.091-1.309 0.436-0.218 0.872-0.654 1.308-1.09 0.436-0.436 0.872-0.872 1.091-1.091 0.436-0.436 1.09-0.872 1.527-1.09 0.436-0.218 0.872-0.436 1.09-1.091 0.218-0.654 0.436-1.09 0.654-1.745 0-0.436 0.218-0.872 0.436-1.308 0.218 0 0.436 0 0.873-0.218-0.218-0.218-0.436-0.218-0.436-0.436 0-0.218 0.218-0.436 0.218-0.437 0-0.218 0.218-0.436 0.218-0.654 0 0 0.218 0 0.218-0.218 0 0 0.218 0 0.218-0.218-0.436 0.218-0.654 0-0.872-0.218 0.218 0.218 0.436 0.218 0.872 0.436 0 0 0.218 0 0.218-0.218 0-0.218 0-0.436 0-0.436 0 0-0.218 0-0.436 0-0.218 0-0.436 0.218-0.654 0.218zM71.131 157.536c0-0.218-0.218-0.218-0.218-0.436-0.218-0.436 0-0.654 0.218-0.873 0.218-0.218 0.436-0.218 0.873-0.218 0.436 0.218 0.654 0.436 0.654 0.873 0 0.218 0 0.654 0 0.872 0.218 0.872 0.218 0.872 1.091 0.872 0.436 0 0.872 0 1.308 0 0.872-0.218 1.745-0.654 2.617-0.872 0.872-0.218 1.745-0.436 2.617-0.654 0.218 0 0.436 0 0.873 0 0.872 0.218 1.527 0 2.181-0.437 0.218-0.218 0.654-0.218 0.872-0.436 0.436-0.218 0.872-0.218 1.308-0.436 1.09-0.654 2.181-1.09 3.054-1.745 0.654-0.436 1.309-0.872 1.963-1.308 0.654-0.436 1.309-0.872 1.962-1.309 0.436-0.218 1.09-0.654 1.527-1.09 0.872-0.654 1.527-1.309 2.399-1.745 0.436-0.218 0.654-0.436 0.872-0.654 0.436-0.218 0.654-0.654 1.091-0.873 0.218-0.218 0.436-0.436 0.872-0.654 0.218-0.218 0.218-0.218 0.218-0.436 0.654-0.436 1.309-1.309 1.745-1.963 0.436-0.436 0.872-0.872 1.309-1.526 0.654-0.654 1.09-1.527 1.744-2.399 0.436-0.436 0.872-1.09 1.091-1.527 0.436-0.872 0.872-1.745 1.526-2.399v-0.218c0.436-0.872 0.872-1.745 1.309-2.617 0.654-1.09 1.09-2.399 1.745-3.49 0.218-0.436 0.436-0.872 0.436-1.308 0.436-0.872 0.654-1.745 0.872-2.617 0-0.218 0-0.218 0.218-0.437 0.654-1.309 1.09-2.617 1.309-4.143 0.218-0.872 0.436-1.745 0.654-2.617 0.436-1.309 0.436-2.399 0.654-3.708 0.218-0.872 0.218-1.963 0.218-2.835 0.218-1.309 0.218-2.835 0-4.144 0-1.09-0.218-2.399-0.218-3.489 0-1.09-0.218-1.963-0.436-3.054-0.218-1.09-0.436-1.963-0.654-3.053-0.436-0.872-0.654-1.745-0.872-2.835-0.218-0.872-0.654-1.527-0.655-2.399 0-0.654-0.218-1.309-0.872-1.527-0.654-0.218-1.09-0.436-1.745-0.872-1.309-0.872-1.963-1.963-1.744-3.271 0-0.654 0.218-1.527 0.436-2.181 0.218-0.654 0.436-1.309 0-1.745-0.218-0.654-0.654-1.09-0.873-1.527-0.436-0.654-0.654-1.09-1.09-1.526-0.436-0.872-0.872-1.745-1.527-2.399-0.872-1.09-1.527-2.181-2.617-3.054l-0.218-0.218c-0.654-0.872-1.309-1.745-2.181-2.399-0.436-0.436-0.872-0.872-1.308-1.09-0.218-0.218-0.436-0.436-0.873-0.654-0.654-0.436-1.309-0.654-1.745-1.091-0.654-0.654-1.527-1.09-2.18-1.527 0 0-0.218 0-0.219-0.218-0.872-0.436-1.527-0.654-2.399-1.09-0.872-0.436-1.745-0.654-2.617-0.654-0.218 0-0.218 0-0.436 0-0.218-0.218-0.654-0.218-0.872-0.218-0.218 0-0.218 0-0.436 0-0.436-0.218-1.09 0-1.527 0-0.872 0.218-1.745 0.218-2.617-0.219-1.09-0.436-1.963-0.872-2.835-1.308-0.654-0.436-1.09-0.872-1.745-1.309-1.309-1.09-2.617-2.399-4.144-3.489 0.218-1.09-0.218-1.309-1.09-1.309-0.436 0-0.872 0.218-1.309 0.437-0.218 0.218-0.218 0.218-0.436 0.436-0.654 0.436-1.09 1.09-1.745 1.526-1.09 0.654-1.527 0.436-2.399 0-0.218-0.218-0.436-0.436-0.654-0.654-0.436-0.436-0.872-1.09-1.09-1.527-0.436-0.872-1.309-0.872-2.181-0.872-0.436 0-1.09 0.218-1.527 0.218-0.872 0-1.745 0.436-2.181 1.091-0.436 0.654-0.872 1.309-1.526 1.962-0.218 0.218-0.654 0.436-0.873 0.873-0.436 0.436-0.872 0.436-1.308 0-0.218-0.218-0.436-0.218-0.655-0.436-0.218 0.218-0.436 0.436-0.436 0.654-0.218 0.436-0.436 0.872-0.654 1.527-0.218 0.654-0.654 1.309-1.091 1.744-0.218 0.218-0.218 0.218-0.436 0.436-0.218 0.436-0.872 0.654-1.308 0.655-0.436 0.436-0.872 1.09-1.091 1.526-0.218 0.436-0.436 0.872-0.654 1.527-0.218 0.218-0.218 0.654-0.436 0.872-0.218 0.436-0.218 0.654-0.218 1.091 0.218 0.654-0.218 0.872-0.873 1.09-0.436 0-0.436 0-0.654 0.436 0 0.654 0.218 1.09 0.436 1.745 0.218 0.218 0.436 0.654 0.436 0.873 0 0.436 0.218 0.654 0.655 0.872 0.218 0.218 0.436 0.436 0.654 0.436 0.218 0 0.218 0.218 0.436 0.218 0.218 0.218 0.436 0 0.436-0.218 0.218-0.654 0.436-1.309 0.437-1.963 0.218-0.872 0.218-1.527 0.436-2.399 0.218-0.436 0.436-0.654 0.654-0.872 0 0 0.218 0 0.436 0v0.218c-0.218 1.09-0.654 2.399-0.872 3.489-0.218 0.436-0.218 0.872-0.436 1.309 0 0.218-0.218 0.436-0.437 0.436-0.436 0.218-0.872 0.436-1.308 0.436-0.218 0-0.436 0-0.654 0-0.436-0.218-0.872-0.654-1.309-0.872-0.218-0.218-0.436-0.436-0.654-0.654-0.218-0.436-0.436-0.872-0.654-1.309-0.218-0.436-0.436-0.654-0.873-0.872-0.218-0.218-0.436-0.218-0.654-0.436-0.436-0.436-0.872-0.654-1.527-0.655-0.218 0-0.654 0-0.872 0-0.218 0-0.654 0.218-0.872 0.437-0.436 0.218-0.654 0.218-1.091 0-1.09-0.436-2.181-0.218-3.271 0.218-0.436 0.218-0.872 0.436-1.309 0.436-1.09 0-1.963 0-3.053 0-1.09 0-1.963-0.218-3.053-0.436-0.436 0-0.872 0-1.309 0-0.872 0.218-1.09 0.872-0.872 1.744 0.218 0.872 0.436 1.963 0.436 2.836 0 0.654 0 1.309 0 1.962 0 0.436 0 0.654 0 1.091 0 0.654-0.218 1.309-0.218 1.963-0.218 1.309-0.872 2.399-1.745 3.271-0.654 0.654-1.527 1.309-2.399 1.527-0.436 0.218-0.872 0.436-1.527 0.654-1.09 0.436-1.963 1.309-2.617 2.399-0.218 0.436-0.436 0.872-0.654 1.309-0.436 0.654-0.654 1.09-1.09 1.744-0.218 0.436-0.654 0.872-0.873 1.309-0.218 0.436-0.654 0.654-0.654 1.09-0.436 0.872-0.654 1.745-1.09 2.617-0.218 0.436-0.218 1.09-0.437 1.527-0.436 0.872-0.436 1.745-0.436 2.835 0 0.218 0 0.436 0 0.873 0 1.09-0.218 2.399-0.218 3.489 0 1.09 0 2.181 0.218 3.271 0 0.436 0 1.09 0 1.527 0 0.872 0.218 1.963 0.218 2.835 0 0.872 0 1.963 0.436 2.835v0.218c0.218 0.872 0.218 1.745 0.437 2.618 0 0.218 0 0.436 0.218 0.654 0.436 1.309 0.654 2.399 1.09 3.707 0.218 0.872 0.654 1.745 0.873 2.617 0.218 0.872 1.09 1.745 1.308 2.836v0c0.654 1.309 1.309 2.617 2.181 3.925 0.218 0.436 0.654 0.872 0.872 1.309 0.436 0.654 0.654 1.309 1.091 1.745 0.218 0.436 0.654 0.872 0.872 1.09 0.218 0.436 0.436 0.872 0.873 1.309 0.436 0.436 0.872 1.09 1.308 1.526 0.654 1.09 1.527 1.963 2.399 2.617 0.436 0.436 0.872 0.654 1.309 1.091 0.218 0.218 0.436 0.218 0.436 0.436 0.218 0.218 0.436 0.436 0.872 0.654 1.745 0.872 3.053 2.181 4.58 3.49 0.654 0.654 1.309 1.309 2.181 1.744 0.872 0.654 1.527 1.309 2.617 1.527 0 0 0.218 0 0.218 0.218 0.436 0.436 1.09 0.654 1.527 0.873 0.872 0.436 1.963 0.872 2.835 1.308 0.218 0.218 0.654 0.218 0.872 0.436 0.654 0.218 1.309 0.436 1.963 0.655 0.654 0.218 1.09 0.436 1.745 0.436h0.218c0.436 0.218 0.654 0.218 1.09 0 0.218 0 0.436 0 0.437 0.218 0 0.218 0.218 0.218 0.436 0.218 0.218 0 0.436 0 0.872 0 0.218-0.218 0.218-0.436 0.436-0.872 0.218 0.218 0.436 0.218 0.437 0.218 0.218 0.436 0.654 0.436 1.09 0.436h0.218c0.436 0 0.654 0 0.872-0.218 0-0.218 0.436-0.218 0.655-0.218 0.654 0.218 1.309 0.218 1.963 0.436 0.436 0.218 1.09 0.218 1.308-0.218 0.218-0.218 0.436-0.436 0.872-0.218 0.436 0.218 0.654 0.218 1.091 0 0.218 0 0.436 0 0.436 0 0.654 0.218 1.09 0.218 1.745 0.436 0.872 0.218 0.872 0.218 1.526-0.436 0.218-0.218 0.654-0.218 0.873 0 0.218 0.436 0.218 0.654 0.218 1.09 0.218 0 0.218 0 0.436-0.218 0-0.436 0.218-0.436 0.654-0.654 0.218 0.218 0.218 0.218 0.437 0.218 0.436 0.436 0.654 0.436 0.872-0.218 0-0.218 0-0.436 0.218-0.436 0.218 0 0.436 0.218 0.436 0.218 0.218 0.436 0.654 0.654 0.873 1.09 0.436 0.436 1.09 0.436 1.308 0 0.218-0.218 0.436-0.218 0.654-0.218 0-0.218 0-0.436 0-0.654 0.654 0.436 0.436 0.436 0.218 0.436zM34.928 55.687c0.654 0.218 1.09 0.218 1.309-0.218-0.436 0.218-0.872-0.218-1.309 0.218z" fill="black" fill-rule="nonzero" stroke="none" stroke-width="1" stroke-linecap="butt" stroke-linejoin="miter" stroke-miterlimit="10" stroke-dasharray="" stroke-dashoffset="0" font-family="none" font-weight="none" font-size="none" text-anchor="none" style="mix-blend-mode: normal"></path></g><g transform="matrix(1,0,0,1,39.325,84.825)"><svg viewBox="0 0 46.35 55.349999999999994" height="55.349999999999994" width="46.35"><g><svg viewBox="0 0 46.35 55.349999999999994" height="55.349999999999994" width="46.35"><g><svg viewBox="0 0 46.35 55.349999999999994" height="55.349999999999994" width="46.35"><g id="SvgjsG1384"><svg viewBox="0 0 46.35 55.349999999999994" height="55.349999999999994" width="46.35" id="SvgjsSvg1383"><g><svg viewBox="0 0 46.35 55.349999999999994" height="55.349999999999994" width="46.35"><g transform="matrix(1,0,0,1,0,0)"><svg width="46.35" viewBox="2.35 -36.35 30.9 36.9" height="55.349999999999994" data-palette-color="url(#8f6e92fc-dbbc-41f1-83a9-3c898a7ece0d)"><path d="M32.5-24.85L32.5-24.85 27.8-24.85Q27.05-28.45 25.2-30.1L25.2-30.1Q22.8-32.3 18.2-32.3L18.2-32.3Q12.6-32.3 9.55-27.9L9.55-27.9Q6.9-24.05 6.9-17.8L6.9-17.8Q6.9-10.75 10.45-6.85L10.45-6.85Q13.6-3.5 18.55-3.5L18.55-3.5Q24.6-3.5 26.9-7.95L26.9-7.95Q27.95-10 28.55-13.4L28.55-13.4 33.25-13.4Q31.6 0.55 18.6 0.55L18.6 0.55Q11.6 0.55 7.55-3.55L7.55-3.55Q2.35-8.8 2.35-17.65L2.35-17.65Q2.35-26.25 7.35-31.8L7.35-31.8Q11.45-36.35 18.65-36.35L18.65-36.35Q30.35-36.35 32.5-24.85Z" opacity="1" transform="matrix(1,0,0,1,0,0)" fill="white" class="wordmark-text-0" id="SvgjsPath1382"></path></svg></g></svg></g></svg></g></svg></g><g></g></svg></g></svg></g></svg></g><defs><mask></mask></defs></svg><rect width="125" height="225" fill="black" stroke="none" visibility="hidden"></rect></g></mask><linearGradient x1="0" x2="1" y1="0.578" y2="0.595" id="8f6e92fc-dbbc-41f1-83a9-3c898a7ece0d"><stop stop-color="#6ee2f5" offset="0"></stop><stop stop-color="#6454f0" offset="1"></stop></linearGradient><rect width="125.00000000000003" height="225" fill="url(#8f6e92fc-dbbc-41f1-83a9-3c898a7ece0d)" mask="url(#592433ce-9942-4f2a-9bbc-f114800ed2b6)" data-fill-palette-color="primary"></rect><mask id="6a491c43-e313-4fe6-9741-e69a48ec0b81"><g id="SvgjsG1408"><svg viewBox="0 0 125 225" height="225" width="125"><g><svg></svg></g><g><svg viewBox="0 0 125 225" height="225" width="125"><g><path d="M33.402 55.033c0-0.436 0.218-0.872 0.654-0.872 0.436 0 0.872 0.218 0.872 0.872 0.218 0 0.654 0 0.873-0.218 0.872 0 1.745-0.218 2.399 0 0.654 0.218 1.09 0.218 1.744 0.436 0.654 0.218 1.09 0 1.527-0.218 0.872-0.218 1.527-0.654 2.399-0.872 0.436-0.218 0.654-0.218 1.091-0.218 0.436-0.218 0.872-0.218 1.526-0.437 1.09-0.218 2.181-0.436 3.053-0.872 0.872-0.436 1.745-0.436 2.618-0.654 0.436 0 0.654-0.218 1.09-0.436 0.218 0 0.218-0.218 0.436-0.437 0.436-0.218 0.654-0.436 1.091-0.218 0.218 0.218 0.654 0.218 0.872 0h0.218c1.309 0 2.617-0.218 4.144 0 0.218 0 0.436 0 0.436 0 0.654-0.436 1.527-0.436 2.399-0.436 0.218 0 0.654 0 0.872 0h0.218c0.872 0 1.745 0 2.399 0.218 0.654 0 1.09 0.218 1.745 0.436 0.654 0 1.09 0 1.745 0.218 0.436 0 0.872 0 1.308 0 0.218 0 0.436 0 0.437 0 0.872 0.218 1.745 0.218 2.617 0.219 0.654 0.218 1.309 0.436 2.181 0.436 0.218 0 0.436 0 0.654 0 0.218 0 0.436 0.218 0.654 0.218l0.218 0.218c0.872 0 1.527 0.436 2.399 0.436 0.218 0 0.654 0 0.873 0.218 0.654 0.436 1.527 0.654 2.399 0.654 0.436 0 0.654 0.218 0.872 0.437 0.654 0.218 1.09 0.436 1.745 0.654 0.436 0.218 0.872 0 1.308 0.218 0.654 0.218 1.527 0.436 2.181 1.09 0.436 0.436 0.872 0.436 1.527 0.873 0.218 0 0.436 0.218 0.654 0.436 0.654 0.436 1.309 0.872 1.963 1.09 0.218 0 0.436 0.218 0.654 0.219 0.654 0.436 1.309 1.09 2.181 1.526 0.436 0.218 0.654 0.436 1.091 0.654h0.218c0.654 0.654 1.527 1.09 2.181 1.745 0.654 0.654 1.09 1.09 1.962 1.527 0 0 0 0 0 0.218 0.218 0.436 0.436 0.654 0.873 0.872 0.436 0.218 0.654 0.436 0.872 0.655 0.654 0.436 1.309 0.872 1.745 1.308 0.218 0.218 0.436 0.436 0.872 0.872 0.218 0.218 0.436 0.436 0.654 0.437 0.872 0.218 1.309 0.872 1.963 1.526 0.436 0.436 1.09 1.09 1.527 1.527 0.218 0.218 0.436 0.654 0.654 1.09 0.436 1.309 1.09 2.617 1.745 3.708 0 0 0 0.218 0.218 0.436v0.218c0.436 0.436 0.654 1.09 1.09 1.527 0.218 0.218 0.218 0.436 0.437 0.654 0.436 0.654 0.654 1.527 1.09 2.181 0.654 1.09 1.09 2.181 1.527 3.271v0.218c0.218 0.436 0.436 0.872 0.654 1.527 0 0.436 0.436 0.872 0.654 1.527 0.218 1.09 0.872 2.181 1.091 3.489 0 0.218 0.218 0.436 0.218 0.873 0.218 0.654 0.436 1.309 0.654 1.962 0 0.218 0.218 0.436 0.436 0.655 0.436 0.436 0.436 0.872 0.436 1.308-0.218 0.872 0 1.745 0.219 2.617 0 0.218 0 0.436 0 0.873 0.218 0.872 0.436 1.963 0.436 2.835 0 0.218 0 0.654 0 0.872 0 0.654 0.218 1.309 0.654 1.963 0 0.218 0.218 0.218 0.218 0.218 0.218 0.218 0.436 0.654 0.654 0.872 0.218 0.218 0.218 0.218 0.437 0.437 0.436 0.436 0.654 0.872 0.654 1.526 0 0.218-0.218 0.654-0.218 0.873 0 0.218 0 0.654 0.218 0.872 0.218 0.218 0.218 0.436 0.218 0.654 0 0.218-0.218 0.436-0.436 0.436v0c-0.218 0.654-1.09 0.872-1.309 1.527-0.218 0.872-0.436 1.745-0.654 2.617-0.218 0.654-0.218 1.09-0.218 1.745 0 0.654-0.218 1.09-0.218 1.745-0.218 0.872-0.436 1.745-0.655 2.617 0 0.436-0.218 0.872-0.218 1.308 0.218 0.218 0.436 0.436 0.655 0.436 0.436 0.436 0.872 0.872 1.308 1.309 0.218 0.218 0.218 0.436 0 0.436-0.218 0.218-0.436 0.218-0.654 0.218-0.218-0.218-0.654-0.436-0.872-0.436-0.218-0.218-0.654-0.436-1.091-0.218 0 0.436-0.218 0.872-0.218 1.09-0.218 0.436-0.436 1.09-0.436 1.527-0.218 0.872-0.654 1.527-0.873 2.399-0.436 1.09-0.872 1.963-1.308 2.835-0.218 0.436-0.436 0.872-0.654 1.309v0c0 0.654-0.654 1.309-0.873 1.963-0.436 0.872-0.872 1.745-1.308 2.835-0.218 0.436-0.436 0.872-0.655 1.09-0.436 1.09-0.872 1.963-1.526 2.836-0.436 0.654-0.872 1.09-1.309 1.308-0.436 0.436-0.872 0.872-1.308 1.309-0.218 0.218-0.436 0.436-0.655 0.654-0.218 0.218-0.218 0.218-0.436 0.436-0.436 0.654-1.09 1.09-1.526 1.745-0.436 0.436-0.654 0.872-1.309 1.308-0.436 0.436-0.872 1.09-1.527 1.309-0.218 0.218-0.436 0.654-0.654 0.872-0.218 0.218-0.436 0.654-0.654 0.873 0 0.436 0.218 0.872 0.218 1.09 0 0.654-0.654 0.872-1.09 0.436-0.654-0.436-0.654-0.436-1.309 0-0.654 0.436-1.309 1.09-2.181 1.309-0.218 0-0.218 0.218-0.436 0.218-0.436 0.218-0.654 0.654-1.091 0.872-0.436 0.436-1.09 0.654-1.526 1.091-0.218 0.218-0.436 0.218-0.655 0.436-0.654 0.436-1.309 0.654-1.962 1.308-0.218 0.218-0.436 0.218-0.655 0.437 0 0.218 0 0.218 0 0.436 0 0.436-0.436 0.872-1.09 0.654-0.654-0.218-1.09 0-1.745 0-0.654 0.218-1.309 0.654-1.963 0.872-0.218 0-0.436 0.218-0.654 0.437-0.654 0.436-1.309 0.654-1.963 0.872-0.436 0-0.872 0.436-1.308 0.436-0.218 0-0.436 0.218-0.655 0.218h-0.218c-0.872 0.654-1.745 1.09-2.617 1.745-0.218 0-0.218 0.218-0.436 0.436-0.218 0.436-0.436 0.654-0.872 0.654-1.09 0-1.527 0.872-1.309 1.745 0 0.218 0.218 0.436 0.218 0.654 0.218 0.436 0 0.872-0.218 1.091-0.218 0.218-0.872 0.218-1.09-0.218-0.436-0.436-0.654-0.872-0.873-1.527-0.218-0.436-0.654-0.872-1.09-1.09-0.436-0.218-0.872-0.218-1.309 0-0.218 0-0.218 0.218-0.436 0.218-0.436 0.436-1.09 0.654-1.745 0.436-0.218 0-0.654 0-0.654 0.218-0.218 0.218-0.218 0.654 0 0.872 0.436 0.436 0.218 0.872 0.218 1.527 0 0.872-0.654 1.309-1.526 0.872-0.218-0.218-0.436-0.218-0.655-0.436-0.218 0-0.218-0.218-0.218-0.436-0.218-0.218-0.218-0.654-0.436-1.09-0.436 0.218-0.872 0.218-1.308 0.436-0.218 0-0.436 0.218-0.655 0.218-0.654 0-0.872 0-1.09-0.654-0.218-0.654-0.654-0.654-1.091-0.873-0.872-0.218-1.963-0.218-2.835-0.654h-0.218c-0.872-0.654-1.745-0.654-2.835-0.654-0.654 0-1.309 0.218-1.963 0.218-0.654 0-1.09 0.218-1.527 0.654-0.218 0.218-0.436 0.436-0.654 0.436-0.218-0.218-0.218-0.436-0.436-0.654v-0.218c0-0.218-0.218-0.436-0.436-0.218-0.436 0.218-0.872-0.218-1.309-0.436-0.218-0.218-0.654-0.654-0.654-1.091-0.218-0.218-0.436-0.436-0.654-0.436-0.436 0-1.09-0.218-1.527-0.218-0.218 0-0.436 0-0.436-0.218-0.218-0.218-0.436-0.218-0.872-0.218-0.218 0-0.218-0.218-0.437-0.218 0.436 0.436 0.654 0.872 0.873 1.308 0 0.218 0.218 0.218 0.218 0.436 0.218 0.436 0 0.654-0.654 0.655-0.436 0-0.436 0-0.655 0.218 0 0.436 0 0.654 0 1.09 0 0.218 0 0.436-0.436 0.654 0 0-0.218 0-0.218 0.219-0.218 0.218-0.218 0.436 0 0.654 0.654 0.436 1.09 0.654 1.745 0.872 0.654 0 0.654 0.436 0.872 0.872 0.218 0.436 0 0.654-0.218 1.091-0.436 0.436-0.872 0.872-1.309 1.309-0.654 0.218-1.09 0.872-1.744 0.872-0.436 0-0.872-0.218-1.091-0.654-0.218-1.09-0.218-1.963 0.218-3.054 0-0.218 0.218-0.436 0-0.654-1.963 0-1.963-0.436-1.962-0.654 0-0.436 0.218-0.654 0.218-1.091 0.218-0.436 0-0.654-0.655-0.872-0.218 0-0.436 0-0.654 0-0.218 0-0.218-0.218-0.654-0.218 0.436-0.218 0.654-0.218 1.09-0.436-0.218-0.872-0.436-1.527-1.09-1.963-0.218-0.218-0.436-0.436-0.436-0.872 0-0.654-0.436-1.09-0.655-1.527-0.436-0.654-1.309-0.872-1.962-0.872-0.654-0.218-1.09-0.218-1.745-0.437-0.654-0.218-1.309-0.872-1.963-1.09-0.218-0.218-0.436-0.436-0.872-0.654-0.872-0.436-1.527-1.09-2.181-1.745-0.436-0.218-0.654-0.654-1.091-0.872-0.436-0.436-0.654-0.872-1.09-1.091-0.436-0.436-0.872-0.872-1.527-1.309-0.654-0.436-1.09-1.09-1.745-1.744-0.436-0.654-1.09-1.09-1.744-1.527-0.218 0-0.436 0-0.655 0-0.218 0-0.436 0.218-0.654 0.218-0.654 0.218-1.09 0.654-1.745 0.873 0.218-0.218 0.218-0.218 0-0.655-0.218-0.218-0.436-0.436-0.654-0.436-0.436 0-0.872 0-1.308 0-0.872 0-1.745 0.218-2.617 0.218-0.654 0-1.527 0.218-2.181 0.436 0.218 0.436 0.218 0.654 0.436 1.091-0.436 0.218-0.872 0.218-1.309 0.218-0.218 0-0.654 0.218-0.872 0.436-0.218 0-0.218 0.218-0.436 0-0.436-0.218-0.872 0-1.309 0.218h-0.218c0 0 0-0.218 0.218-0.218 0.218-0.218 0.436-0.436 0.654-0.654 0.218-0.218 0.436-0.218 0.873-0.436-0.218-0.218-0.218-0.436-0.218-0.437-0.218-0.218-0.436-0.218-0.655 0-0.218 0.218-0.436 0.436-0.654 0.655-0.218 0.218-0.436 0.218-0.654 0-0.218-0.218-0.218-0.436 0-0.655 0-0.218 0.218-0.436 0.436-0.654 0.218-0.218 0.218-0.436 0.436-0.654-0.436-0.436-0.654-0.872-1.09-1.091-0.654-0.436-1.309-1.09-1.745-1.744-0.436-0.872-1.09-1.527-1.963-1.963-0.218-0.218-0.436-0.436-0.654-0.654-0.218-0.218-0.218-0.218-0.436-0.437-0.654 0.218-1.09 0.654-1.745 0.873-0.218 0-0.218 0.218-0.436 0.436-0.218 0.436-0.654 0.436-1.091 0.436-0.218 0-0.436-0.218-0.218-0.436 0.218-0.436 0.436-0.872 1.091-0.654 0 0 0.218 0 0.218-0.218 0.436-0.436 0.872-1.09 1.527-1.527-0.218-0.654-0.654-1.09-0.873-1.527-0.218-0.218-0.218-0.436-0.218-0.872 0-0.218 0-0.218-0.218-0.436 0 0-0.218 0-0.436 0.218-0.218 0.218-0.654 0.436-1.091 0 0-0.218 0-0.436 0.218-0.654l0.219-0.218c0.654-0.218 0.654-0.872 0.654-1.527v-0.218c-0.218-0.436-0.218-0.654 0.218-1.091 0.654-0.436 1.309-1.309 1.527-1.962 0.218-0.436 0.654-0.654 1.09-1.091 0.436-0.436 0.872-0.872 1.09-1.527h0.219c0.872 0.218 1.09-0.436 1.526-1.09 0-0.218 0-0.436 0.218-0.436 0.436-0.436 0.436-0.872 0.218-1.527 0-0.218-0.218-0.654-0.218-0.872 0-0.218 0-0.218-0.218-0.436-0.654-0.436-0.654-0.872 0-1.309 0.436-0.218 0.436-0.654 0.654-0.872 0.218-0.436 0.218-0.872 0.219-1.527-0.218-0.654-0.218-1.527-0.437-2.181-0.218-0.872-0.436-1.963-0.654-2.835 0-0.218 0-0.218 0-0.436 0-0.654 0-1.09-0.218-1.745-0.218-0.218-0.218-0.654-0.218-0.872-0.218-0.654-0.436-1.09-1.091-1.309-0.654-0.436-1.527-0.654-2.18-1.09-0.218-0.218-0.436 0-0.655 0.218-0.218 0.436-0.654 0.872-0.872 1.308-0.218 0.218-0.436 0.654-0.654 1.091-0.436 0.436-1.309 0.872-1.963 0.218-0.218-0.436-0.436-0.654 0-1.091 0.436-0.654 0.872-1.309 1.526-1.744 0.218-0.218 0.436-0.654 0.655-0.873 0.218-0.436 0.218-0.872 0.218-1.308-0.218-0.872-0.436-1.745-0.436-2.835 0-1.09 0-1.963 0.218-3.054 0.218-0.436 0.218-1.09 0.436-1.526 0-0.218 0.218-0.654 0.436-0.873 0.436-0.436 0.872-0.872 1.091-1.526 0.218-0.654 0.654-1.309 0.654-1.963 0-0.218 0.218-0.436 0.218-0.654 0-0.218 0.218-0.654 0.218-0.873-0.218-0.654 0-1.09 0.218-1.526 0.218-0.436 0.436-1.09 0.654-1.527 0.436-0.872 0.436-1.963 1.309-2.835 0.218-0.436 0.436-0.872 0.654-1.309 0.218-0.872 0.654-1.527 1.091-2.181 0.218-0.218 0.218-0.218 0.218-0.436 0.218-0.654 0.654-1.309 1.09-1.963 0.436-0.654 0.436-1.309 0.654-1.962 0-0.218 0-0.436 0.219-0.655 0.654-0.654 0.436-1.527 0.218-2.399-0.436-1.09-0.654-2.181-0.437-3.271 0-0.218 0-0.436 0.219-0.436 0.218-0.436 0.218-0.654 0.436-1.091v-0.218c0.436-0.436 0.872-1.09 1.526-1.308 0.872-0.436 1.745-0.654 2.836-0.873 0.872 0 1.745-0.436 2.399-1.308 0-0.218 0.218-0.218 0.436-0.437l0.218-0.218c0.218-0.436 0.436-0.654 0.654-0.872 0.436-0.436 0.872-1.09 1.309-1.527 0.436-0.436 0.872-1.09 1.526-1.744l0.218-0.218c0.436-0.436 0.872-0.872 1.309-1.091 0.436-0.436 0.872-0.872 1.308-1.308 0.436-0.436 0.654-0.872 1.091-1.309 0.436-0.218 0.872-0.654 1.308-1.09 0.436-0.436 0.872-0.872 1.091-1.091 0.436-0.436 1.09-0.872 1.527-1.09 0.436-0.218 0.872-0.436 1.09-1.091 0.218-0.654 0.436-1.09 0.654-1.745 0-0.436 0.218-0.872 0.436-1.308 0.218 0 0.436 0 0.873-0.218-0.218-0.218-0.436-0.218-0.436-0.436 0-0.218 0.218-0.436 0.218-0.437 0-0.218 0.218-0.436 0.218-0.654 0 0 0.218 0 0.218-0.218 0 0 0.218 0 0.218-0.218-0.436 0.218-0.654 0-0.872-0.218 0.218 0.218 0.436 0.218 0.872 0.436 0 0 0.218 0 0.218-0.218 0-0.218 0-0.436 0-0.436 0 0-0.218 0-0.436 0-0.218 0-0.436 0.218-0.654 0.218zM71.131 157.536c0-0.218-0.218-0.218-0.218-0.436-0.218-0.436 0-0.654 0.218-0.873 0.218-0.218 0.436-0.218 0.873-0.218 0.436 0.218 0.654 0.436 0.654 0.873 0 0.218 0 0.654 0 0.872 0.218 0.872 0.218 0.872 1.091 0.872 0.436 0 0.872 0 1.308 0 0.872-0.218 1.745-0.654 2.617-0.872 0.872-0.218 1.745-0.436 2.617-0.654 0.218 0 0.436 0 0.873 0 0.872 0.218 1.527 0 2.181-0.437 0.218-0.218 0.654-0.218 0.872-0.436 0.436-0.218 0.872-0.218 1.308-0.436 1.09-0.654 2.181-1.09 3.054-1.745 0.654-0.436 1.309-0.872 1.963-1.308 0.654-0.436 1.309-0.872 1.962-1.309 0.436-0.218 1.09-0.654 1.527-1.09 0.872-0.654 1.527-1.309 2.399-1.745 0.436-0.218 0.654-0.436 0.872-0.654 0.436-0.218 0.654-0.654 1.091-0.873 0.218-0.218 0.436-0.436 0.872-0.654 0.218-0.218 0.218-0.218 0.218-0.436 0.654-0.436 1.309-1.309 1.745-1.963 0.436-0.436 0.872-0.872 1.309-1.526 0.654-0.654 1.09-1.527 1.744-2.399 0.436-0.436 0.872-1.09 1.091-1.527 0.436-0.872 0.872-1.745 1.526-2.399v-0.218c0.436-0.872 0.872-1.745 1.309-2.617 0.654-1.09 1.09-2.399 1.745-3.49 0.218-0.436 0.436-0.872 0.436-1.308 0.436-0.872 0.654-1.745 0.872-2.617 0-0.218 0-0.218 0.218-0.437 0.654-1.309 1.09-2.617 1.309-4.143 0.218-0.872 0.436-1.745 0.654-2.617 0.436-1.309 0.436-2.399 0.654-3.708 0.218-0.872 0.218-1.963 0.218-2.835 0.218-1.309 0.218-2.835 0-4.144 0-1.09-0.218-2.399-0.218-3.489 0-1.09-0.218-1.963-0.436-3.054-0.218-1.09-0.436-1.963-0.654-3.053-0.436-0.872-0.654-1.745-0.872-2.835-0.218-0.872-0.654-1.527-0.655-2.399 0-0.654-0.218-1.309-0.872-1.527-0.654-0.218-1.09-0.436-1.745-0.872-1.309-0.872-1.963-1.963-1.744-3.271 0-0.654 0.218-1.527 0.436-2.181 0.218-0.654 0.436-1.309 0-1.745-0.218-0.654-0.654-1.09-0.873-1.527-0.436-0.654-0.654-1.09-1.09-1.526-0.436-0.872-0.872-1.745-1.527-2.399-0.872-1.09-1.527-2.181-2.617-3.054l-0.218-0.218c-0.654-0.872-1.309-1.745-2.181-2.399-0.436-0.436-0.872-0.872-1.308-1.09-0.218-0.218-0.436-0.436-0.873-0.654-0.654-0.436-1.309-0.654-1.745-1.091-0.654-0.654-1.527-1.09-2.18-1.527 0 0-0.218 0-0.219-0.218-0.872-0.436-1.527-0.654-2.399-1.09-0.872-0.436-1.745-0.654-2.617-0.654-0.218 0-0.218 0-0.436 0-0.218-0.218-0.654-0.218-0.872-0.218-0.218 0-0.218 0-0.436 0-0.436-0.218-1.09 0-1.527 0-0.872 0.218-1.745 0.218-2.617-0.219-1.09-0.436-1.963-0.872-2.835-1.308-0.654-0.436-1.09-0.872-1.745-1.309-1.309-1.09-2.617-2.399-4.144-3.489 0.218-1.09-0.218-1.309-1.09-1.309-0.436 0-0.872 0.218-1.309 0.437-0.218 0.218-0.218 0.218-0.436 0.436-0.654 0.436-1.09 1.09-1.745 1.526-1.09 0.654-1.527 0.436-2.399 0-0.218-0.218-0.436-0.436-0.654-0.654-0.436-0.436-0.872-1.09-1.09-1.527-0.436-0.872-1.309-0.872-2.181-0.872-0.436 0-1.09 0.218-1.527 0.218-0.872 0-1.745 0.436-2.181 1.091-0.436 0.654-0.872 1.309-1.526 1.962-0.218 0.218-0.654 0.436-0.873 0.873-0.436 0.436-0.872 0.436-1.308 0-0.218-0.218-0.436-0.218-0.655-0.436-0.218 0.218-0.436 0.436-0.436 0.654-0.218 0.436-0.436 0.872-0.654 1.527-0.218 0.654-0.654 1.309-1.091 1.744-0.218 0.218-0.218 0.218-0.436 0.436-0.218 0.436-0.872 0.654-1.308 0.655-0.436 0.436-0.872 1.09-1.091 1.526-0.218 0.436-0.436 0.872-0.654 1.527-0.218 0.218-0.218 0.654-0.436 0.872-0.218 0.436-0.218 0.654-0.218 1.091 0.218 0.654-0.218 0.872-0.873 1.09-0.436 0-0.436 0-0.654 0.436 0 0.654 0.218 1.09 0.436 1.745 0.218 0.218 0.436 0.654 0.436 0.873 0 0.436 0.218 0.654 0.655 0.872 0.218 0.218 0.436 0.436 0.654 0.436 0.218 0 0.218 0.218 0.436 0.218 0.218 0.218 0.436 0 0.436-0.218 0.218-0.654 0.436-1.309 0.437-1.963 0.218-0.872 0.218-1.527 0.436-2.399 0.218-0.436 0.436-0.654 0.654-0.872 0 0 0.218 0 0.436 0v0.218c-0.218 1.09-0.654 2.399-0.872 3.489-0.218 0.436-0.218 0.872-0.436 1.309 0 0.218-0.218 0.436-0.437 0.436-0.436 0.218-0.872 0.436-1.308 0.436-0.218 0-0.436 0-0.654 0-0.436-0.218-0.872-0.654-1.309-0.872-0.218-0.218-0.436-0.436-0.654-0.654-0.218-0.436-0.436-0.872-0.654-1.309-0.218-0.436-0.436-0.654-0.873-0.872-0.218-0.218-0.436-0.218-0.654-0.436-0.436-0.436-0.872-0.654-1.527-0.655-0.218 0-0.654 0-0.872 0-0.218 0-0.654 0.218-0.872 0.437-0.436 0.218-0.654 0.218-1.091 0-1.09-0.436-2.181-0.218-3.271 0.218-0.436 0.218-0.872 0.436-1.309 0.436-1.09 0-1.963 0-3.053 0-1.09 0-1.963-0.218-3.053-0.436-0.436 0-0.872 0-1.309 0-0.872 0.218-1.09 0.872-0.872 1.744 0.218 0.872 0.436 1.963 0.436 2.836 0 0.654 0 1.309 0 1.962 0 0.436 0 0.654 0 1.091 0 0.654-0.218 1.309-0.218 1.963-0.218 1.309-0.872 2.399-1.745 3.271-0.654 0.654-1.527 1.309-2.399 1.527-0.436 0.218-0.872 0.436-1.527 0.654-1.09 0.436-1.963 1.309-2.617 2.399-0.218 0.436-0.436 0.872-0.654 1.309-0.436 0.654-0.654 1.09-1.09 1.744-0.218 0.436-0.654 0.872-0.873 1.309-0.218 0.436-0.654 0.654-0.654 1.09-0.436 0.872-0.654 1.745-1.09 2.617-0.218 0.436-0.218 1.09-0.437 1.527-0.436 0.872-0.436 1.745-0.436 2.835 0 0.218 0 0.436 0 0.873 0 1.09-0.218 2.399-0.218 3.489 0 1.09 0 2.181 0.218 3.271 0 0.436 0 1.09 0 1.527 0 0.872 0.218 1.963 0.218 2.835 0 0.872 0 1.963 0.436 2.835v0.218c0.218 0.872 0.218 1.745 0.437 2.618 0 0.218 0 0.436 0.218 0.654 0.436 1.309 0.654 2.399 1.09 3.707 0.218 0.872 0.654 1.745 0.873 2.617 0.218 0.872 1.09 1.745 1.308 2.836v0c0.654 1.309 1.309 2.617 2.181 3.925 0.218 0.436 0.654 0.872 0.872 1.309 0.436 0.654 0.654 1.309 1.091 1.745 0.218 0.436 0.654 0.872 0.872 1.09 0.218 0.436 0.436 0.872 0.873 1.309 0.436 0.436 0.872 1.09 1.308 1.526 0.654 1.09 1.527 1.963 2.399 2.617 0.436 0.436 0.872 0.654 1.309 1.091 0.218 0.218 0.436 0.218 0.436 0.436 0.218 0.218 0.436 0.436 0.872 0.654 1.745 0.872 3.053 2.181 4.58 3.49 0.654 0.654 1.309 1.309 2.181 1.744 0.872 0.654 1.527 1.309 2.617 1.527 0 0 0.218 0 0.218 0.218 0.436 0.436 1.09 0.654 1.527 0.873 0.872 0.436 1.963 0.872 2.835 1.308 0.218 0.218 0.654 0.218 0.872 0.436 0.654 0.218 1.309 0.436 1.963 0.655 0.654 0.218 1.09 0.436 1.745 0.436h0.218c0.436 0.218 0.654 0.218 1.09 0 0.218 0 0.436 0 0.437 0.218 0 0.218 0.218 0.218 0.436 0.218 0.218 0 0.436 0 0.872 0 0.218-0.218 0.218-0.436 0.436-0.872 0.218 0.218 0.436 0.218 0.437 0.218 0.218 0.436 0.654 0.436 1.09 0.436h0.218c0.436 0 0.654 0 0.872-0.218 0-0.218 0.436-0.218 0.655-0.218 0.654 0.218 1.309 0.218 1.963 0.436 0.436 0.218 1.09 0.218 1.308-0.218 0.218-0.218 0.436-0.436 0.872-0.218 0.436 0.218 0.654 0.218 1.091 0 0.218 0 0.436 0 0.436 0 0.654 0.218 1.09 0.218 1.745 0.436 0.872 0.218 0.872 0.218 1.526-0.436 0.218-0.218 0.654-0.218 0.873 0 0.218 0.436 0.218 0.654 0.218 1.09 0.218 0 0.218 0 0.436-0.218 0-0.436 0.218-0.436 0.654-0.654 0.218 0.218 0.218 0.218 0.437 0.218 0.436 0.436 0.654 0.436 0.872-0.218 0-0.218 0-0.436 0.218-0.436 0.218 0 0.436 0.218 0.436 0.218 0.218 0.436 0.654 0.654 0.873 1.09 0.436 0.436 1.09 0.436 1.308 0 0.218-0.218 0.436-0.218 0.654-0.218 0-0.218 0-0.436 0-0.654 0.654 0.436 0.436 0.436 0.218 0.436zM34.928 55.687c0.654 0.218 1.09 0.218 1.309-0.218-0.436 0.218-0.872-0.218-1.309 0.218z" fill="white" fill-rule="nonzero" stroke="none" stroke-width="1" stroke-linecap="butt" stroke-linejoin="miter" stroke-miterlimit="10" stroke-dasharray="" stroke-dashoffset="0" font-family="none" font-weight="none" font-size="none" text-anchor="none" style="mix-blend-mode: normal"></path></g><g transform="matrix(1,0,0,1,39.325,84.825)"><svg viewBox="0 0 46.35 55.349999999999994" height="55.349999999999994" width="46.35"><g><svg viewBox="0 0 46.35 55.349999999999994" height="55.349999999999994" width="46.35"><g><svg viewBox="0 0 46.35 55.349999999999994" height="55.349999999999994" width="46.35"><g id="SvgjsG1407"><svg viewBox="0 0 46.35 55.349999999999994" height="55.349999999999994" width="46.35" id="SvgjsSvg1406"><g><svg viewBox="0 0 46.35 55.349999999999994" height="55.349999999999994" width="46.35"><g transform="matrix(1,0,0,1,0,0)"><svg width="46.35" viewBox="2.35 -36.35 30.9 36.9" height="55.349999999999994" data-palette-color="url(#8f6e92fc-dbbc-41f1-83a9-3c898a7ece0d)"></svg></g></svg></g></svg></g></svg></g><g></g></svg></g></svg></g></svg></g><defs><mask></mask></defs><mask><g id="SvgjsG1405"><svg viewBox="0 0 125 225" height="225" width="125"><g><svg></svg></g><g><svg viewBox="0 0 125 225" height="225" width="125"><g><path d="M33.402 55.033c0-0.436 0.218-0.872 0.654-0.872 0.436 0 0.872 0.218 0.872 0.872 0.218 0 0.654 0 0.873-0.218 0.872 0 1.745-0.218 2.399 0 0.654 0.218 1.09 0.218 1.744 0.436 0.654 0.218 1.09 0 1.527-0.218 0.872-0.218 1.527-0.654 2.399-0.872 0.436-0.218 0.654-0.218 1.091-0.218 0.436-0.218 0.872-0.218 1.526-0.437 1.09-0.218 2.181-0.436 3.053-0.872 0.872-0.436 1.745-0.436 2.618-0.654 0.436 0 0.654-0.218 1.09-0.436 0.218 0 0.218-0.218 0.436-0.437 0.436-0.218 0.654-0.436 1.091-0.218 0.218 0.218 0.654 0.218 0.872 0h0.218c1.309 0 2.617-0.218 4.144 0 0.218 0 0.436 0 0.436 0 0.654-0.436 1.527-0.436 2.399-0.436 0.218 0 0.654 0 0.872 0h0.218c0.872 0 1.745 0 2.399 0.218 0.654 0 1.09 0.218 1.745 0.436 0.654 0 1.09 0 1.745 0.218 0.436 0 0.872 0 1.308 0 0.218 0 0.436 0 0.437 0 0.872 0.218 1.745 0.218 2.617 0.219 0.654 0.218 1.309 0.436 2.181 0.436 0.218 0 0.436 0 0.654 0 0.218 0 0.436 0.218 0.654 0.218l0.218 0.218c0.872 0 1.527 0.436 2.399 0.436 0.218 0 0.654 0 0.873 0.218 0.654 0.436 1.527 0.654 2.399 0.654 0.436 0 0.654 0.218 0.872 0.437 0.654 0.218 1.09 0.436 1.745 0.654 0.436 0.218 0.872 0 1.308 0.218 0.654 0.218 1.527 0.436 2.181 1.09 0.436 0.436 0.872 0.436 1.527 0.873 0.218 0 0.436 0.218 0.654 0.436 0.654 0.436 1.309 0.872 1.963 1.09 0.218 0 0.436 0.218 0.654 0.219 0.654 0.436 1.309 1.09 2.181 1.526 0.436 0.218 0.654 0.436 1.091 0.654h0.218c0.654 0.654 1.527 1.09 2.181 1.745 0.654 0.654 1.09 1.09 1.962 1.527 0 0 0 0 0 0.218 0.218 0.436 0.436 0.654 0.873 0.872 0.436 0.218 0.654 0.436 0.872 0.655 0.654 0.436 1.309 0.872 1.745 1.308 0.218 0.218 0.436 0.436 0.872 0.872 0.218 0.218 0.436 0.436 0.654 0.437 0.872 0.218 1.309 0.872 1.963 1.526 0.436 0.436 1.09 1.09 1.527 1.527 0.218 0.218 0.436 0.654 0.654 1.09 0.436 1.309 1.09 2.617 1.745 3.708 0 0 0 0.218 0.218 0.436v0.218c0.436 0.436 0.654 1.09 1.09 1.527 0.218 0.218 0.218 0.436 0.437 0.654 0.436 0.654 0.654 1.527 1.09 2.181 0.654 1.09 1.09 2.181 1.527 3.271v0.218c0.218 0.436 0.436 0.872 0.654 1.527 0 0.436 0.436 0.872 0.654 1.527 0.218 1.09 0.872 2.181 1.091 3.489 0 0.218 0.218 0.436 0.218 0.873 0.218 0.654 0.436 1.309 0.654 1.962 0 0.218 0.218 0.436 0.436 0.655 0.436 0.436 0.436 0.872 0.436 1.308-0.218 0.872 0 1.745 0.219 2.617 0 0.218 0 0.436 0 0.873 0.218 0.872 0.436 1.963 0.436 2.835 0 0.218 0 0.654 0 0.872 0 0.654 0.218 1.309 0.654 1.963 0 0.218 0.218 0.218 0.218 0.218 0.218 0.218 0.436 0.654 0.654 0.872 0.218 0.218 0.218 0.218 0.437 0.437 0.436 0.436 0.654 0.872 0.654 1.526 0 0.218-0.218 0.654-0.218 0.873 0 0.218 0 0.654 0.218 0.872 0.218 0.218 0.218 0.436 0.218 0.654 0 0.218-0.218 0.436-0.436 0.436v0c-0.218 0.654-1.09 0.872-1.309 1.527-0.218 0.872-0.436 1.745-0.654 2.617-0.218 0.654-0.218 1.09-0.218 1.745 0 0.654-0.218 1.09-0.218 1.745-0.218 0.872-0.436 1.745-0.655 2.617 0 0.436-0.218 0.872-0.218 1.308 0.218 0.218 0.436 0.436 0.655 0.436 0.436 0.436 0.872 0.872 1.308 1.309 0.218 0.218 0.218 0.436 0 0.436-0.218 0.218-0.436 0.218-0.654 0.218-0.218-0.218-0.654-0.436-0.872-0.436-0.218-0.218-0.654-0.436-1.091-0.218 0 0.436-0.218 0.872-0.218 1.09-0.218 0.436-0.436 1.09-0.436 1.527-0.218 0.872-0.654 1.527-0.873 2.399-0.436 1.09-0.872 1.963-1.308 2.835-0.218 0.436-0.436 0.872-0.654 1.309v0c0 0.654-0.654 1.309-0.873 1.963-0.436 0.872-0.872 1.745-1.308 2.835-0.218 0.436-0.436 0.872-0.655 1.09-0.436 1.09-0.872 1.963-1.526 2.836-0.436 0.654-0.872 1.09-1.309 1.308-0.436 0.436-0.872 0.872-1.308 1.309-0.218 0.218-0.436 0.436-0.655 0.654-0.218 0.218-0.218 0.218-0.436 0.436-0.436 0.654-1.09 1.09-1.526 1.745-0.436 0.436-0.654 0.872-1.309 1.308-0.436 0.436-0.872 1.09-1.527 1.309-0.218 0.218-0.436 0.654-0.654 0.872-0.218 0.218-0.436 0.654-0.654 0.873 0 0.436 0.218 0.872 0.218 1.09 0 0.654-0.654 0.872-1.09 0.436-0.654-0.436-0.654-0.436-1.309 0-0.654 0.436-1.309 1.09-2.181 1.309-0.218 0-0.218 0.218-0.436 0.218-0.436 0.218-0.654 0.654-1.091 0.872-0.436 0.436-1.09 0.654-1.526 1.091-0.218 0.218-0.436 0.218-0.655 0.436-0.654 0.436-1.309 0.654-1.962 1.308-0.218 0.218-0.436 0.218-0.655 0.437 0 0.218 0 0.218 0 0.436 0 0.436-0.436 0.872-1.09 0.654-0.654-0.218-1.09 0-1.745 0-0.654 0.218-1.309 0.654-1.963 0.872-0.218 0-0.436 0.218-0.654 0.437-0.654 0.436-1.309 0.654-1.963 0.872-0.436 0-0.872 0.436-1.308 0.436-0.218 0-0.436 0.218-0.655 0.218h-0.218c-0.872 0.654-1.745 1.09-2.617 1.745-0.218 0-0.218 0.218-0.436 0.436-0.218 0.436-0.436 0.654-0.872 0.654-1.09 0-1.527 0.872-1.309 1.745 0 0.218 0.218 0.436 0.218 0.654 0.218 0.436 0 0.872-0.218 1.091-0.218 0.218-0.872 0.218-1.09-0.218-0.436-0.436-0.654-0.872-0.873-1.527-0.218-0.436-0.654-0.872-1.09-1.09-0.436-0.218-0.872-0.218-1.309 0-0.218 0-0.218 0.218-0.436 0.218-0.436 0.436-1.09 0.654-1.745 0.436-0.218 0-0.654 0-0.654 0.218-0.218 0.218-0.218 0.654 0 0.872 0.436 0.436 0.218 0.872 0.218 1.527 0 0.872-0.654 1.309-1.526 0.872-0.218-0.218-0.436-0.218-0.655-0.436-0.218 0-0.218-0.218-0.218-0.436-0.218-0.218-0.218-0.654-0.436-1.09-0.436 0.218-0.872 0.218-1.308 0.436-0.218 0-0.436 0.218-0.655 0.218-0.654 0-0.872 0-1.09-0.654-0.218-0.654-0.654-0.654-1.091-0.873-0.872-0.218-1.963-0.218-2.835-0.654h-0.218c-0.872-0.654-1.745-0.654-2.835-0.654-0.654 0-1.309 0.218-1.963 0.218-0.654 0-1.09 0.218-1.527 0.654-0.218 0.218-0.436 0.436-0.654 0.436-0.218-0.218-0.218-0.436-0.436-0.654v-0.218c0-0.218-0.218-0.436-0.436-0.218-0.436 0.218-0.872-0.218-1.309-0.436-0.218-0.218-0.654-0.654-0.654-1.091-0.218-0.218-0.436-0.436-0.654-0.436-0.436 0-1.09-0.218-1.527-0.218-0.218 0-0.436 0-0.436-0.218-0.218-0.218-0.436-0.218-0.872-0.218-0.218 0-0.218-0.218-0.437-0.218 0.436 0.436 0.654 0.872 0.873 1.308 0 0.218 0.218 0.218 0.218 0.436 0.218 0.436 0 0.654-0.654 0.655-0.436 0-0.436 0-0.655 0.218 0 0.436 0 0.654 0 1.09 0 0.218 0 0.436-0.436 0.654 0 0-0.218 0-0.218 0.219-0.218 0.218-0.218 0.436 0 0.654 0.654 0.436 1.09 0.654 1.745 0.872 0.654 0 0.654 0.436 0.872 0.872 0.218 0.436 0 0.654-0.218 1.091-0.436 0.436-0.872 0.872-1.309 1.309-0.654 0.218-1.09 0.872-1.744 0.872-0.436 0-0.872-0.218-1.091-0.654-0.218-1.09-0.218-1.963 0.218-3.054 0-0.218 0.218-0.436 0-0.654-1.963 0-1.963-0.436-1.962-0.654 0-0.436 0.218-0.654 0.218-1.091 0.218-0.436 0-0.654-0.655-0.872-0.218 0-0.436 0-0.654 0-0.218 0-0.218-0.218-0.654-0.218 0.436-0.218 0.654-0.218 1.09-0.436-0.218-0.872-0.436-1.527-1.09-1.963-0.218-0.218-0.436-0.436-0.436-0.872 0-0.654-0.436-1.09-0.655-1.527-0.436-0.654-1.309-0.872-1.962-0.872-0.654-0.218-1.09-0.218-1.745-0.437-0.654-0.218-1.309-0.872-1.963-1.09-0.218-0.218-0.436-0.436-0.872-0.654-0.872-0.436-1.527-1.09-2.181-1.745-0.436-0.218-0.654-0.654-1.091-0.872-0.436-0.436-0.654-0.872-1.09-1.091-0.436-0.436-0.872-0.872-1.527-1.309-0.654-0.436-1.09-1.09-1.745-1.744-0.436-0.654-1.09-1.09-1.744-1.527-0.218 0-0.436 0-0.655 0-0.218 0-0.436 0.218-0.654 0.218-0.654 0.218-1.09 0.654-1.745 0.873 0.218-0.218 0.218-0.218 0-0.655-0.218-0.218-0.436-0.436-0.654-0.436-0.436 0-0.872 0-1.308 0-0.872 0-1.745 0.218-2.617 0.218-0.654 0-1.527 0.218-2.181 0.436 0.218 0.436 0.218 0.654 0.436 1.091-0.436 0.218-0.872 0.218-1.309 0.218-0.218 0-0.654 0.218-0.872 0.436-0.218 0-0.218 0.218-0.436 0-0.436-0.218-0.872 0-1.309 0.218h-0.218c0 0 0-0.218 0.218-0.218 0.218-0.218 0.436-0.436 0.654-0.654 0.218-0.218 0.436-0.218 0.873-0.436-0.218-0.218-0.218-0.436-0.218-0.437-0.218-0.218-0.436-0.218-0.655 0-0.218 0.218-0.436 0.436-0.654 0.655-0.218 0.218-0.436 0.218-0.654 0-0.218-0.218-0.218-0.436 0-0.655 0-0.218 0.218-0.436 0.436-0.654 0.218-0.218 0.218-0.436 0.436-0.654-0.436-0.436-0.654-0.872-1.09-1.091-0.654-0.436-1.309-1.09-1.745-1.744-0.436-0.872-1.09-1.527-1.963-1.963-0.218-0.218-0.436-0.436-0.654-0.654-0.218-0.218-0.218-0.218-0.436-0.437-0.654 0.218-1.09 0.654-1.745 0.873-0.218 0-0.218 0.218-0.436 0.436-0.218 0.436-0.654 0.436-1.091 0.436-0.218 0-0.436-0.218-0.218-0.436 0.218-0.436 0.436-0.872 1.091-0.654 0 0 0.218 0 0.218-0.218 0.436-0.436 0.872-1.09 1.527-1.527-0.218-0.654-0.654-1.09-0.873-1.527-0.218-0.218-0.218-0.436-0.218-0.872 0-0.218 0-0.218-0.218-0.436 0 0-0.218 0-0.436 0.218-0.218 0.218-0.654 0.436-1.091 0 0-0.218 0-0.436 0.218-0.654l0.219-0.218c0.654-0.218 0.654-0.872 0.654-1.527v-0.218c-0.218-0.436-0.218-0.654 0.218-1.091 0.654-0.436 1.309-1.309 1.527-1.962 0.218-0.436 0.654-0.654 1.09-1.091 0.436-0.436 0.872-0.872 1.09-1.527h0.219c0.872 0.218 1.09-0.436 1.526-1.09 0-0.218 0-0.436 0.218-0.436 0.436-0.436 0.436-0.872 0.218-1.527 0-0.218-0.218-0.654-0.218-0.872 0-0.218 0-0.218-0.218-0.436-0.654-0.436-0.654-0.872 0-1.309 0.436-0.218 0.436-0.654 0.654-0.872 0.218-0.436 0.218-0.872 0.219-1.527-0.218-0.654-0.218-1.527-0.437-2.181-0.218-0.872-0.436-1.963-0.654-2.835 0-0.218 0-0.218 0-0.436 0-0.654 0-1.09-0.218-1.745-0.218-0.218-0.218-0.654-0.218-0.872-0.218-0.654-0.436-1.09-1.091-1.309-0.654-0.436-1.527-0.654-2.18-1.09-0.218-0.218-0.436 0-0.655 0.218-0.218 0.436-0.654 0.872-0.872 1.308-0.218 0.218-0.436 0.654-0.654 1.091-0.436 0.436-1.309 0.872-1.963 0.218-0.218-0.436-0.436-0.654 0-1.091 0.436-0.654 0.872-1.309 1.526-1.744 0.218-0.218 0.436-0.654 0.655-0.873 0.218-0.436 0.218-0.872 0.218-1.308-0.218-0.872-0.436-1.745-0.436-2.835 0-1.09 0-1.963 0.218-3.054 0.218-0.436 0.218-1.09 0.436-1.526 0-0.218 0.218-0.654 0.436-0.873 0.436-0.436 0.872-0.872 1.091-1.526 0.218-0.654 0.654-1.309 0.654-1.963 0-0.218 0.218-0.436 0.218-0.654 0-0.218 0.218-0.654 0.218-0.873-0.218-0.654 0-1.09 0.218-1.526 0.218-0.436 0.436-1.09 0.654-1.527 0.436-0.872 0.436-1.963 1.309-2.835 0.218-0.436 0.436-0.872 0.654-1.309 0.218-0.872 0.654-1.527 1.091-2.181 0.218-0.218 0.218-0.218 0.218-0.436 0.218-0.654 0.654-1.309 1.09-1.963 0.436-0.654 0.436-1.309 0.654-1.962 0-0.218 0-0.436 0.219-0.655 0.654-0.654 0.436-1.527 0.218-2.399-0.436-1.09-0.654-2.181-0.437-3.271 0-0.218 0-0.436 0.219-0.436 0.218-0.436 0.218-0.654 0.436-1.091v-0.218c0.436-0.436 0.872-1.09 1.526-1.308 0.872-0.436 1.745-0.654 2.836-0.873 0.872 0 1.745-0.436 2.399-1.308 0-0.218 0.218-0.218 0.436-0.437l0.218-0.218c0.218-0.436 0.436-0.654 0.654-0.872 0.436-0.436 0.872-1.09 1.309-1.527 0.436-0.436 0.872-1.09 1.526-1.744l0.218-0.218c0.436-0.436 0.872-0.872 1.309-1.091 0.436-0.436 0.872-0.872 1.308-1.308 0.436-0.436 0.654-0.872 1.091-1.309 0.436-0.218 0.872-0.654 1.308-1.09 0.436-0.436 0.872-0.872 1.091-1.091 0.436-0.436 1.09-0.872 1.527-1.09 0.436-0.218 0.872-0.436 1.09-1.091 0.218-0.654 0.436-1.09 0.654-1.745 0-0.436 0.218-0.872 0.436-1.308 0.218 0 0.436 0 0.873-0.218-0.218-0.218-0.436-0.218-0.436-0.436 0-0.218 0.218-0.436 0.218-0.437 0-0.218 0.218-0.436 0.218-0.654 0 0 0.218 0 0.218-0.218 0 0 0.218 0 0.218-0.218-0.436 0.218-0.654 0-0.872-0.218 0.218 0.218 0.436 0.218 0.872 0.436 0 0 0.218 0 0.218-0.218 0-0.218 0-0.436 0-0.436 0 0-0.218 0-0.436 0-0.218 0-0.436 0.218-0.654 0.218zM71.131 157.536c0-0.218-0.218-0.218-0.218-0.436-0.218-0.436 0-0.654 0.218-0.873 0.218-0.218 0.436-0.218 0.873-0.218 0.436 0.218 0.654 0.436 0.654 0.873 0 0.218 0 0.654 0 0.872 0.218 0.872 0.218 0.872 1.091 0.872 0.436 0 0.872 0 1.308 0 0.872-0.218 1.745-0.654 2.617-0.872 0.872-0.218 1.745-0.436 2.617-0.654 0.218 0 0.436 0 0.873 0 0.872 0.218 1.527 0 2.181-0.437 0.218-0.218 0.654-0.218 0.872-0.436 0.436-0.218 0.872-0.218 1.308-0.436 1.09-0.654 2.181-1.09 3.054-1.745 0.654-0.436 1.309-0.872 1.963-1.308 0.654-0.436 1.309-0.872 1.962-1.309 0.436-0.218 1.09-0.654 1.527-1.09 0.872-0.654 1.527-1.309 2.399-1.745 0.436-0.218 0.654-0.436 0.872-0.654 0.436-0.218 0.654-0.654 1.091-0.873 0.218-0.218 0.436-0.436 0.872-0.654 0.218-0.218 0.218-0.218 0.218-0.436 0.654-0.436 1.309-1.309 1.745-1.963 0.436-0.436 0.872-0.872 1.309-1.526 0.654-0.654 1.09-1.527 1.744-2.399 0.436-0.436 0.872-1.09 1.091-1.527 0.436-0.872 0.872-1.745 1.526-2.399v-0.218c0.436-0.872 0.872-1.745 1.309-2.617 0.654-1.09 1.09-2.399 1.745-3.49 0.218-0.436 0.436-0.872 0.436-1.308 0.436-0.872 0.654-1.745 0.872-2.617 0-0.218 0-0.218 0.218-0.437 0.654-1.309 1.09-2.617 1.309-4.143 0.218-0.872 0.436-1.745 0.654-2.617 0.436-1.309 0.436-2.399 0.654-3.708 0.218-0.872 0.218-1.963 0.218-2.835 0.218-1.309 0.218-2.835 0-4.144 0-1.09-0.218-2.399-0.218-3.489 0-1.09-0.218-1.963-0.436-3.054-0.218-1.09-0.436-1.963-0.654-3.053-0.436-0.872-0.654-1.745-0.872-2.835-0.218-0.872-0.654-1.527-0.655-2.399 0-0.654-0.218-1.309-0.872-1.527-0.654-0.218-1.09-0.436-1.745-0.872-1.309-0.872-1.963-1.963-1.744-3.271 0-0.654 0.218-1.527 0.436-2.181 0.218-0.654 0.436-1.309 0-1.745-0.218-0.654-0.654-1.09-0.873-1.527-0.436-0.654-0.654-1.09-1.09-1.526-0.436-0.872-0.872-1.745-1.527-2.399-0.872-1.09-1.527-2.181-2.617-3.054l-0.218-0.218c-0.654-0.872-1.309-1.745-2.181-2.399-0.436-0.436-0.872-0.872-1.308-1.09-0.218-0.218-0.436-0.436-0.873-0.654-0.654-0.436-1.309-0.654-1.745-1.091-0.654-0.654-1.527-1.09-2.18-1.527 0 0-0.218 0-0.219-0.218-0.872-0.436-1.527-0.654-2.399-1.09-0.872-0.436-1.745-0.654-2.617-0.654-0.218 0-0.218 0-0.436 0-0.218-0.218-0.654-0.218-0.872-0.218-0.218 0-0.218 0-0.436 0-0.436-0.218-1.09 0-1.527 0-0.872 0.218-1.745 0.218-2.617-0.219-1.09-0.436-1.963-0.872-2.835-1.308-0.654-0.436-1.09-0.872-1.745-1.309-1.309-1.09-2.617-2.399-4.144-3.489 0.218-1.09-0.218-1.309-1.09-1.309-0.436 0-0.872 0.218-1.309 0.437-0.218 0.218-0.218 0.218-0.436 0.436-0.654 0.436-1.09 1.09-1.745 1.526-1.09 0.654-1.527 0.436-2.399 0-0.218-0.218-0.436-0.436-0.654-0.654-0.436-0.436-0.872-1.09-1.09-1.527-0.436-0.872-1.309-0.872-2.181-0.872-0.436 0-1.09 0.218-1.527 0.218-0.872 0-1.745 0.436-2.181 1.091-0.436 0.654-0.872 1.309-1.526 1.962-0.218 0.218-0.654 0.436-0.873 0.873-0.436 0.436-0.872 0.436-1.308 0-0.218-0.218-0.436-0.218-0.655-0.436-0.218 0.218-0.436 0.436-0.436 0.654-0.218 0.436-0.436 0.872-0.654 1.527-0.218 0.654-0.654 1.309-1.091 1.744-0.218 0.218-0.218 0.218-0.436 0.436-0.218 0.436-0.872 0.654-1.308 0.655-0.436 0.436-0.872 1.09-1.091 1.526-0.218 0.436-0.436 0.872-0.654 1.527-0.218 0.218-0.218 0.654-0.436 0.872-0.218 0.436-0.218 0.654-0.218 1.091 0.218 0.654-0.218 0.872-0.873 1.09-0.436 0-0.436 0-0.654 0.436 0 0.654 0.218 1.09 0.436 1.745 0.218 0.218 0.436 0.654 0.436 0.873 0 0.436 0.218 0.654 0.655 0.872 0.218 0.218 0.436 0.436 0.654 0.436 0.218 0 0.218 0.218 0.436 0.218 0.218 0.218 0.436 0 0.436-0.218 0.218-0.654 0.436-1.309 0.437-1.963 0.218-0.872 0.218-1.527 0.436-2.399 0.218-0.436 0.436-0.654 0.654-0.872 0 0 0.218 0 0.436 0v0.218c-0.218 1.09-0.654 2.399-0.872 3.489-0.218 0.436-0.218 0.872-0.436 1.309 0 0.218-0.218 0.436-0.437 0.436-0.436 0.218-0.872 0.436-1.308 0.436-0.218 0-0.436 0-0.654 0-0.436-0.218-0.872-0.654-1.309-0.872-0.218-0.218-0.436-0.436-0.654-0.654-0.218-0.436-0.436-0.872-0.654-1.309-0.218-0.436-0.436-0.654-0.873-0.872-0.218-0.218-0.436-0.218-0.654-0.436-0.436-0.436-0.872-0.654-1.527-0.655-0.218 0-0.654 0-0.872 0-0.218 0-0.654 0.218-0.872 0.437-0.436 0.218-0.654 0.218-1.091 0-1.09-0.436-2.181-0.218-3.271 0.218-0.436 0.218-0.872 0.436-1.309 0.436-1.09 0-1.963 0-3.053 0-1.09 0-1.963-0.218-3.053-0.436-0.436 0-0.872 0-1.309 0-0.872 0.218-1.09 0.872-0.872 1.744 0.218 0.872 0.436 1.963 0.436 2.836 0 0.654 0 1.309 0 1.962 0 0.436 0 0.654 0 1.091 0 0.654-0.218 1.309-0.218 1.963-0.218 1.309-0.872 2.399-1.745 3.271-0.654 0.654-1.527 1.309-2.399 1.527-0.436 0.218-0.872 0.436-1.527 0.654-1.09 0.436-1.963 1.309-2.617 2.399-0.218 0.436-0.436 0.872-0.654 1.309-0.436 0.654-0.654 1.09-1.09 1.744-0.218 0.436-0.654 0.872-0.873 1.309-0.218 0.436-0.654 0.654-0.654 1.09-0.436 0.872-0.654 1.745-1.09 2.617-0.218 0.436-0.218 1.09-0.437 1.527-0.436 0.872-0.436 1.745-0.436 2.835 0 0.218 0 0.436 0 0.873 0 1.09-0.218 2.399-0.218 3.489 0 1.09 0 2.181 0.218 3.271 0 0.436 0 1.09 0 1.527 0 0.872 0.218 1.963 0.218 2.835 0 0.872 0 1.963 0.436 2.835v0.218c0.218 0.872 0.218 1.745 0.437 2.618 0 0.218 0 0.436 0.218 0.654 0.436 1.309 0.654 2.399 1.09 3.707 0.218 0.872 0.654 1.745 0.873 2.617 0.218 0.872 1.09 1.745 1.308 2.836v0c0.654 1.309 1.309 2.617 2.181 3.925 0.218 0.436 0.654 0.872 0.872 1.309 0.436 0.654 0.654 1.309 1.091 1.745 0.218 0.436 0.654 0.872 0.872 1.09 0.218 0.436 0.436 0.872 0.873 1.309 0.436 0.436 0.872 1.09 1.308 1.526 0.654 1.09 1.527 1.963 2.399 2.617 0.436 0.436 0.872 0.654 1.309 1.091 0.218 0.218 0.436 0.218 0.436 0.436 0.218 0.218 0.436 0.436 0.872 0.654 1.745 0.872 3.053 2.181 4.58 3.49 0.654 0.654 1.309 1.309 2.181 1.744 0.872 0.654 1.527 1.309 2.617 1.527 0 0 0.218 0 0.218 0.218 0.436 0.436 1.09 0.654 1.527 0.873 0.872 0.436 1.963 0.872 2.835 1.308 0.218 0.218 0.654 0.218 0.872 0.436 0.654 0.218 1.309 0.436 1.963 0.655 0.654 0.218 1.09 0.436 1.745 0.436h0.218c0.436 0.218 0.654 0.218 1.09 0 0.218 0 0.436 0 0.437 0.218 0 0.218 0.218 0.218 0.436 0.218 0.218 0 0.436 0 0.872 0 0.218-0.218 0.218-0.436 0.436-0.872 0.218 0.218 0.436 0.218 0.437 0.218 0.218 0.436 0.654 0.436 1.09 0.436h0.218c0.436 0 0.654 0 0.872-0.218 0-0.218 0.436-0.218 0.655-0.218 0.654 0.218 1.309 0.218 1.963 0.436 0.436 0.218 1.09 0.218 1.308-0.218 0.218-0.218 0.436-0.436 0.872-0.218 0.436 0.218 0.654 0.218 1.091 0 0.218 0 0.436 0 0.436 0 0.654 0.218 1.09 0.218 1.745 0.436 0.872 0.218 0.872 0.218 1.526-0.436 0.218-0.218 0.654-0.218 0.873 0 0.218 0.436 0.218 0.654 0.218 1.09 0.218 0 0.218 0 0.436-0.218 0-0.436 0.218-0.436 0.654-0.654 0.218 0.218 0.218 0.218 0.437 0.218 0.436 0.436 0.654 0.436 0.872-0.218 0-0.218 0-0.436 0.218-0.436 0.218 0 0.436 0.218 0.436 0.218 0.218 0.436 0.654 0.654 0.873 1.09 0.436 0.436 1.09 0.436 1.308 0 0.218-0.218 0.436-0.218 0.654-0.218 0-0.218 0-0.436 0-0.654 0.654 0.436 0.436 0.436 0.218 0.436zM34.928 55.687c0.654 0.218 1.09 0.218 1.309-0.218-0.436 0.218-0.872-0.218-1.309 0.218z" fill="black" fill-rule="nonzero" stroke="none" stroke-width="1" stroke-linecap="butt" stroke-linejoin="miter" stroke-miterlimit="10" stroke-dasharray="" stroke-dashoffset="0" font-family="none" font-weight="none" font-size="none" text-anchor="none" style="mix-blend-mode: normal"></path></g><g transform="matrix(1,0,0,1,39.325,84.825)"><svg viewBox="0 0 46.35 55.349999999999994" height="55.349999999999994" width="46.35"><g><svg viewBox="0 0 46.35 55.349999999999994" height="55.349999999999994" width="46.35"><g><svg viewBox="0 0 46.35 55.349999999999994" height="55.349999999999994" width="46.35"><g id="SvgjsG1404"><svg viewBox="0 0 46.35 55.349999999999994" height="55.349999999999994" width="46.35" id="SvgjsSvg1403"><g><svg viewBox="0 0 46.35 55.349999999999994" height="55.349999999999994" width="46.35"><g transform="matrix(1,0,0,1,0,0)"><svg width="46.35" viewBox="2.35 -36.35 30.9 36.9" height="55.349999999999994" data-palette-color="url(#8f6e92fc-dbbc-41f1-83a9-3c898a7ece0d)"><path d="M32.5-24.85L32.5-24.85 27.8-24.85Q27.05-28.45 25.2-30.1L25.2-30.1Q22.8-32.3 18.2-32.3L18.2-32.3Q12.6-32.3 9.55-27.9L9.55-27.9Q6.9-24.05 6.9-17.8L6.9-17.8Q6.9-10.75 10.45-6.85L10.45-6.85Q13.6-3.5 18.55-3.5L18.55-3.5Q24.6-3.5 26.9-7.95L26.9-7.95Q27.95-10 28.55-13.4L28.55-13.4 33.25-13.4Q31.6 0.55 18.6 0.55L18.6 0.55Q11.6 0.55 7.55-3.55L7.55-3.55Q2.35-8.8 2.35-17.65L2.35-17.65Q2.35-26.25 7.35-31.8L7.35-31.8Q11.45-36.35 18.65-36.35L18.65-36.35Q30.35-36.35 32.5-24.85Z" opacity="1" transform="matrix(1,0,0,1,0,0)" fill="black" class="wordmark-text-0" id="SvgjsPath1402"></path></svg></g></svg></g></svg></g></svg></g><g></g></svg></g></svg></g></svg></g><defs><mask></mask></defs></svg><rect width="125" height="225" fill="black" stroke="none" visibility="hidden"></rect></g></mask></svg><rect width="125" height="225" fill="black" stroke="none" visibility="hidden"></rect></g></mask><linearGradient x1="0" x2="1" y1="0.578" y2="0.595" id="74a5537d-8c9d-496b-9755-f35778b12780"><stop stop-color="#6ee2f5" offset="0"></stop><stop stop-color="#6454f0" offset="1"></stop></linearGradient></svg><rect width="125" height="225" fill="none" stroke="none" visibility="hidden"></rect></g></svg></g></svg>